<?xml version="1.0" encoding="UTF-8"?>
<!DOCTYPE svg PUBLIC "-//W3C//DTD SVG 1.1//EN" "http://www.w3.org/Graphics/SVG/1.1/DTD/svg11.dtd">
<!-- Creator: CorelDRAW 2026 -->
<svg xmlns="http://www.w3.org/2000/svg" xml:space="preserve" width="91.497mm" height="76.9491mm" version="1.1" style="shape-rendering:geometricPrecision; text-rendering:geometricPrecision; image-rendering:optimizeQuality; fill-rule:evenodd; clip-rule:evenodd"
viewBox="0 0 2369.15 1992.46"
 xmlns:xlink="http://www.w3.org/1999/xlink"
 xmlns:xodm="http://www.corel.com/coreldraw/odm/2003">
 <defs>
  <style type="text/css">
   <![CDATA[
    .fil2 {fill:#05BAFE;fill-rule:nonzero}
    .fil0 {fill:#06B6FE;fill-rule:nonzero}
    .fil1 {fill:#07AFFE;fill-rule:nonzero}
    .fil116 {fill:#0815C6;fill-rule:nonzero}
    .fil8 {fill:#08A7FE;fill-rule:nonzero}
    .fil76 {fill:#0BA3FE;fill-rule:nonzero}
    .fil14 {fill:#0BADFE;fill-rule:nonzero}
    .fil48 {fill:#0C0B10;fill-rule:nonzero}
    .fil5 {fill:#0F9CFE;fill-rule:nonzero}
    .fil20 {fill:#0FA8FE;fill-rule:nonzero}
    .fil38 {fill:#1098FD;fill-rule:nonzero}
    .fil12 {fill:#1194FE;fill-rule:nonzero}
    .fil4 {fill:#11A3FE;fill-rule:nonzero}
    .fil72 {fill:#1388FB;fill-rule:nonzero}
    .fil37 {fill:#1393FD;fill-rule:nonzero}
    .fil19 {fill:#158EFE;fill-rule:nonzero}
    .fil27 {fill:#1789FE;fill-rule:nonzero}
    .fil21 {fill:#178BFD;fill-rule:nonzero}
    .fil30 {fill:#179EFE;fill-rule:nonzero}
    .fil15 {fill:#1984FE;fill-rule:nonzero}
    .fil40 {fill:#1B84FD;fill-rule:nonzero}
    .fil25 {fill:#1C7DFE;fill-rule:nonzero}
    .fil24 {fill:#1D98FE;fill-rule:nonzero}
    .fil29 {fill:#1E77FE;fill-rule:nonzero}
    .fil83 {fill:#2193FE;fill-rule:nonzero}
    .fil73 {fill:#225FEE;fill-rule:nonzero}
    .fil75 {fill:#2272FE;fill-rule:nonzero}
    .fil104 {fill:#251FD3;fill-rule:nonzero}
    .fil28 {fill:#256CFC;fill-rule:nonzero}
    .fil90 {fill:#260BDC;fill-rule:nonzero}
    .fil87 {fill:#2622B1;fill-rule:nonzero}
    .fil47 {fill:#277EFD;fill-rule:nonzero}
    .fil13 {fill:#278CFE;fill-rule:nonzero}
    .fil147 {fill:#290CD2;fill-rule:nonzero}
    .fil33 {fill:#2968FB;fill-rule:nonzero}
    .fil56 {fill:#2D4CDC;fill-rule:nonzero}
    .fil74 {fill:#2D6EE8;fill-rule:nonzero}
    .fil95 {fill:#2E62F7;fill-rule:nonzero}
    .fil89 {fill:#2F11CE;fill-rule:nonzero}
    .fil26 {fill:#3083FE;fill-rule:nonzero}
    .fil58 {fill:#3247CC;fill-rule:nonzero}
    .fil150 {fill:#345CF5;fill-rule:nonzero}
    .fil77 {fill:#3613C6;fill-rule:nonzero}
    .fil98 {fill:#3669FE;fill-rule:nonzero}
    .fil70 {fill:#3724B4;fill-rule:nonzero}
    .fil42 {fill:#382ADA;fill-rule:nonzero}
    .fil23 {fill:#387CFC;fill-rule:nonzero}
    .fil43 {fill:#393AF1;fill-rule:nonzero}
    .fil151 {fill:#3958F3;fill-rule:nonzero}
    .fil114 {fill:#3A24D1;fill-rule:nonzero}
    .fil46 {fill:#3B24C5;fill-rule:nonzero}
    .fil39 {fill:#3B32EA;fill-rule:nonzero}
    .fil59 {fill:#3B33C1;fill-rule:nonzero}
    .fil108 {fill:#3C2DE3;fill-rule:nonzero}
    .fil71 {fill:#3D16D6;fill-rule:nonzero}
    .fil65 {fill:#3D38CE;fill-rule:nonzero}
    .fil16 {fill:#3F3BFA;fill-rule:nonzero}
    .fil84 {fill:#4034F2;fill-rule:nonzero}
    .fil156 {fill:#4052F0;fill-rule:nonzero}
    .fil117 {fill:#406BFC;fill-rule:nonzero}
    .fil69 {fill:#4161E4;fill-rule:nonzero}
    .fil94 {fill:#4273FA;fill-rule:nonzero}
    .fil115 {fill:#4426D8;fill-rule:nonzero}
    .fil161 {fill:#444EEE;fill-rule:nonzero}
    .fil60 {fill:#4561E1;fill-rule:nonzero}
    .fil146 {fill:#476DF8;fill-rule:nonzero}
    .fil17 {fill:#4826BE;fill-rule:nonzero}
    .fil62 {fill:#4928BC;fill-rule:nonzero}
    .fil109 {fill:#492CE7;fill-rule:nonzero}
    .fil155 {fill:#4B28DD;fill-rule:nonzero}
    .fil92 {fill:#4B2FF0;fill-rule:nonzero}
    .fil18 {fill:#4B35FB;fill-rule:nonzero}
    .fil160 {fill:#4C49EC;fill-rule:nonzero}
    .fil85 {fill:#4E27B9;fill-rule:nonzero}
    .fil66 {fill:#4F2CC1;fill-rule:nonzero}
    .fil133 {fill:#4F69F6;fill-rule:nonzero}
    .fil132 {fill:#5052FB;fill-rule:nonzero}
    .fil91 {fill:#5333FE;fill-rule:nonzero}
    .fil103 {fill:#542BE2;fill-rule:nonzero}
    .fil159 {fill:#5444EA;fill-rule:nonzero}
    .fil140 {fill:#5455F5;fill-rule:nonzero}
    .fil80 {fill:#5523BC;fill-rule:nonzero}
    .fil93 {fill:#572FF6;fill-rule:nonzero}
    .fil134 {fill:#5765F4;fill-rule:nonzero}
    .fil45 {fill:#582CEA;fill-rule:nonzero}
    .fil53 {fill:#5A20BA;fill-rule:nonzero}
    .fil81 {fill:#5B2FFD;fill-rule:nonzero}
    .fil49 {fill:#5C2ED1;fill-rule:nonzero}
    .fil86 {fill:#5D2DAF;fill-rule:nonzero}
    .fil64 {fill:#5E4ED6;fill-rule:nonzero}
    .fil143 {fill:#5F60F1;fill-rule:nonzero}
    .fil141 {fill:#603EE7;fill-rule:nonzero}
    .fil67 {fill:#6147D5;fill-rule:nonzero}
    .fil44 {fill:#622DED;fill-rule:nonzero}
    .fil57 {fill:#6429BF;fill-rule:nonzero}
    .fil10 {fill:#6730FD;fill-rule:nonzero}
    .fil142 {fill:#6839E5;fill-rule:nonzero}
    .fil138 {fill:#6B58EF;fill-rule:nonzero}
    .fil139 {fill:#6D67F6;fill-rule:nonzero}
    .fil127 {fill:#6F42F6;fill-rule:nonzero}
    .fil158 {fill:#7037E4;fill-rule:nonzero}
    .fil54 {fill:#711DC4;fill-rule:nonzero}
    .fil144 {fill:#7453ED;fill-rule:nonzero}
    .fil131 {fill:#7735E3;fill-rule:nonzero}
    .fil137 {fill:#7D4EEA;fill-rule:nonzero}
    .fil157 {fill:#7E32E2;fill-rule:nonzero}
    .fil68 {fill:#7F36C8;fill-rule:nonzero}
    .fil63 {fill:#7F39C7;fill-rule:nonzero}
    .fil130 {fill:#8531E1;fill-rule:nonzero}
    .fil145 {fill:#854AE8;fill-rule:nonzero}
    .fil111 {fill:#8B31E0;fill-rule:nonzero}
    .fil136 {fill:#8C46E6;fill-rule:nonzero}
    .fil41 {fill:#952EDF;fill-rule:nonzero}
    .fil126 {fill:#9638F1;fill-rule:nonzero}
    .fil135 {fill:#9940E4;fill-rule:nonzero}
    .fil129 {fill:#9A21D2;fill-rule:nonzero}
    .fil110 {fill:#9D2DDE;fill-rule:nonzero}
    .fil51 {fill:#A32CBE;fill-rule:nonzero}
    .fil122 {fill:#A43BE0;fill-rule:nonzero}
    .fil61 {fill:#A52EBB;fill-rule:nonzero}
    .fil113 {fill:#A62CDD;fill-rule:nonzero}
    .fil152 {fill:#B02BDC;fill-rule:nonzero}
    .fil121 {fill:#B137DD;fill-rule:nonzero}
    .fil112 {fill:#B831EA;fill-rule:nonzero}
    .fil119 {fill:#BA33DC;fill-rule:nonzero}
    .fil153 {fill:#BB2BDA;fill-rule:nonzero}
    .fil154 {fill:#BE29DA;fill-rule:nonzero}
    .fil118 {fill:#C430D8;fill-rule:nonzero}
    .fil101 {fill:#C729D9;fill-rule:nonzero}
    .fil55 {fill:#C826AC;fill-rule:nonzero}
    .fil52 {fill:#CD28B1;fill-rule:nonzero}
    .fil120 {fill:#CE2ED5;fill-rule:nonzero}
    .fil100 {fill:#CF29D7;fill-rule:nonzero}
    .fil128 {fill:#D52DE1;fill-rule:nonzero}
    .fil99 {fill:#D729D5;fill-rule:nonzero}
    .fil123 {fill:#D72CD2;fill-rule:nonzero}
    .fil124 {fill:#DF2BCF;fill-rule:nonzero}
    .fil148 {fill:#DF32E5;fill-rule:nonzero}
    .fil102 {fill:#E128D5;fill-rule:nonzero}
    .fil96 {fill:#E429D0;fill-rule:nonzero}
    .fil125 {fill:#E72CCB;fill-rule:nonzero}
    .fil50 {fill:#EB279F;fill-rule:nonzero}
    .fil34 {fill:#EC28D3;fill-rule:nonzero}
    .fil32 {fill:#ED29CD;fill-rule:nonzero}
    .fil82 {fill:#ED2DC8;fill-rule:nonzero}
    .fil78 {fill:#F2DC1A;fill-rule:nonzero}
    .fil31 {fill:#F32CC9;fill-rule:nonzero}
    .fil79 {fill:#F3D41B;fill-rule:nonzero}
    .fil149 {fill:#F5C71C;fill-rule:nonzero}
    .fil11 {fill:#F62DC2;fill-rule:nonzero}
    .fil97 {fill:#F631DD;fill-rule:nonzero}
    .fil107 {fill:#F7A02E;fill-rule:nonzero}
    .fil88 {fill:#F9C020;fill-rule:nonzero}
    .fil7 {fill:#FB2FBD;fill-rule:nonzero}
    .fil106 {fill:#FBA929;fill-rule:nonzero}
    .fil22 {fill:#FBCA2D;fill-rule:nonzero}
    .fil9 {fill:#FC27AC;fill-rule:nonzero}
    .fil36 {fill:#FD34B5;fill-rule:nonzero}
    .fil105 {fill:#FDB923;fill-rule:nonzero}
    .fil35 {fill:#FDC421;fill-rule:nonzero}
    .fil3 {fill:#FDC927;fill-rule:nonzero}
    .fil6 {fill:#FED01E;fill-rule:nonzero}
   ]]>
  </style>
 </defs>
 <g id="Слой_x0020_1">
  <metadata id="CorelCorpID_0Corel-Layer"/>
  <path class="fil0" d="M2014.72 887.79c0.82,7.47 4.18,15.62 -5.14,20.55 -6.85,8.36 -5.41,22.06 -18.77,28.71 -17.06,-14.66 -5.69,-39.53 -18.98,-55.7 -36.72,-44.53 -38.09,-101.74 -53.3,-153.94 -4.87,-16.72 -1.37,-35.76 -20.21,-47.41 -7.19,-4.45 -9.52,-15.76 -8.43,-25.01 3.36,-28.09 -10.07,-50.83 -17.95,-76.05 -7.88,-25.21 -24.11,-50.35 -24.32,-77.76 0,-28.84 -18.57,-53.23 -16.44,-82.21 0.82,-11.03 -11.65,-16.44 -14.18,-26.65 -6.85,-64.88 -1.51,-130.17 -3.36,-194.84 -0.55,-20.07 8.84,-32.82 31.65,-29.53 18.02,13.77 34.19,29.94 47.95,47.96 -8.43,5.14 -23.09,5.34 -15.83,22.33 8.5,19.73 9.32,42.34 22.06,60.56 9.32,13.29 13.22,27.4 0.89,40.35 -8.08,8.56 -2.67,12.88 2.26,19.73 28.91,39.8 37.82,84.81 41.11,133.73 1.44,24.6 4.32,55.22 29.39,73.3 3.7,2.74 10.41,7.26 8.97,9.11 -23.36,30.14 15.35,51.25 10.89,79.95 -0.59,3.46 -0.89,6.98 -0.89,10.49 0,22 11.73,42.34 30.77,53.36 19.04,11.37 20.55,25.55 17.88,46.04 -5.89,41.99 -26.17,80.43 -26.03,122.9z"/>
  <path class="fil1" d="M1824.13 401.37c32.2,0.82 9.66,27.81 19.04,41.11 16.78,23.36 7.33,54.81 18.15,80.63 3.22,7.67 4.73,18.84 16.99,18.36 17.13,-0.69 9.25,11.17 4.66,13.15 -21.37,9.45 -13.15,22.47 -1.78,29.53 22.54,13.7 17.88,34.25 18.29,54.05 0.41,18.09 -15,44.33 23.16,43.23 6.85,0 0.89,9.25 1.71,13.7 3.56,22.13 -4.66,46.31 17.47,65.15 14.46,12.33 -13.7,31.58 4.18,51.04 10.89,11.92 12.6,33.09 24.94,48.98 14.18,18.43 24.25,42.2 16.58,68.51 14.39,-1.44 11.85,-17.4 22.06,-20.55 -4.59,28.16 -19.04,51.86 -34.25,75.36 -14.66,16.85 -19.25,40.63 -39.26,56.93 -14.59,-19.94 -15.28,-42.75 -16.72,-64.26 -1.12,-20.23 -8.97,-39.52 -22.26,-54.8 -34.6,-41.58 -62.14,-86.25 -57.55,-143.87 0.32,-3.19 0.49,-6.42 0.49,-9.63 0,-18.47 -5.4,-36.57 -15.5,-52.02 -11.44,-17.2 -8.84,-37 -8.97,-56.18 -5.89,-55.56 10.07,-111.53 -8.63,-167.44 -7.33,-21.85 1.44,-48.91 0.62,-73.79 0.07,-7.75 3.36,-18.91 16.58,-17.2z"/>
  <path class="fil2" d="M2014.72 887.79c-2.47,2.4 -5.21,6.85 -7.26,6.85 -9.93,-1.37 -3.49,-8.08 -2.6,-12.06 9.04,-41.11 17.88,-82.55 27.95,-123.32 3.22,-12.95 3.29,-18.15 -9.87,-28.71 -24.94,-20.01 -51.18,-44.6 -36.86,-84.4 1.78,-4.8 0.96,-15 -1.64,-16.17 -27.4,-12.54 -33.84,-27.4 -8.36,-48.85 0.75,-0.62 -0.55,-5.62 -1.3,-5.69 -28.84,-3.9 -19.66,-34.73 -27.81,-42.89 -23.71,-23.71 -9.45,-48.71 -14.11,-71.66 -7.95,-39.53 -16.1,-77.42 -45.83,-107.01 -1.98,-2.37 -3.73,-4.96 -5.2,-7.67 49.33,-28.29 -6.85,-51.93 -4.52,-79.13 1.78,-18.09 -10.21,-37.54 -16.03,-56.32 14.11,-9.87 20.55,9.8 31.99,5.48 74.13,82.83 124.27,177.58 143.25,287.74 11.11,50.96 16.85,103.02 16.85,155.17 0,70.41 -10.32,140.48 -30.53,207.89 1.76,9.01 -4.89,14.29 -8.11,20.72z"/>
  <path class="fil3" d="M1152.96 1776.6c19.55,-27.41 79.35,-36.6 109.13,-21.22 125.07,64.58 85.68,213.3 -27.5,218.96 -105.35,5.26 -149.39,-94.59 -85.88,-191.27l4.25 -6.47z"/>
  <path class="fil4" d="M1673.41 627.45c-7.13,-26.86 -14.2,-53.74 -21.24,-80.64 6.17,-58.92 5.27,-118.18 15.62,-177.16 5.76,-32.27 13.7,-66.38 7.47,-100.43 -0.29,-1.93 -0.44,-3.88 -0.44,-5.83 0,-3.75 0.55,-7.5 1.6,-11.09 9.87,-35.56 25.28,-70.5 1.85,-107.35 -4.93,-7.74 1.99,-19.87 6.17,-29.25 2.58,-4.54 3.94,-9.67 3.94,-14.9 0,-4.93 -1.21,-9.8 -3.53,-14.15 -13.7,-25.9 4.93,-16.44 16.51,-14.18 28.29,7.95 52.14,23.98 75.36,41.11 -25.21,7.19 -37,28.09 -26.65,59.33 7.95,24.05 4.8,45.49 2.19,69.4 -7.95,74.26 -15.69,148.8 -6.85,223.68 0.06,0.98 0.09,1.98 0.09,2.96 0,8.15 -1.96,16.18 -5.7,23.42 -3.63,8.36 -8.7,17.2 -5.48,26.17 14.04,39.87 10.96,83.24 25.9,122.77 -4.04,27.4 -21.65,53.57 -3.7,83.51 5.41,9.04 -3.36,23.84 -17.95,27.81 -22.13,0 -42.34,0 -41.52,-32.27 0,-13.7 -20.55,-20.55 -20.14,-37.13 -1.78,-18.71 3.97,-37.75 -3.49,-55.77z"/>
  <path class="fil5" d="M1680.26 689.11c13.15,12.06 31.31,20.07 26.31,44.33 -2.19,10.62 4.38,15.76 16.37,7.6 8.7,-5.89 11.03,2.67 12.2,9.73 0,1.51 0,3.01 0.48,4.59 0,10.55 -7.74,23.5 9.25,28.5 1.71,1.58 4.18,3.43 4.04,5.41 -3.56,61.32 30.42,111.53 49.12,166.27 1.43,4.6 2.15,9.4 2.15,14.22 0,2 -0.13,4.01 -0.38,5.99 -1.92,24.25 6.17,45.01 15.14,67.82 12.74,32.41 24.25,67.75 19.66,105.03 8.15,-4.38 12.54,-12.54 19.39,-18.09 6.85,-5.55 14.18,-15.07 26.03,-9.59 -16.99,33.36 -45.49,55.22 -75.36,75.36 -31.65,20.01 -39.8,16.72 -42.89,-21.03 -1.92,-23.5 -10.21,-46.72 -4.25,-70.84 0.55,-1.81 0.83,-3.7 0.83,-5.6 0,-3.92 -1.2,-7.76 -3.44,-10.98 -28.16,-31.86 -31.99,-72.14 -39.26,-111.26 -1.07,-4.46 -3.32,-8.56 -6.51,-11.85 -41.11,-46.11 -59.88,-101.67 -68.51,-161.54 2.19,-6.17 1.44,-13.22 5.41,-18.91 8.59,-31.97 17.17,-63.94 25.76,-95.91 2.88,-3.36 5.76,-3.08 8.43,0.75z"/>
  <path class="fil6" d="M290.55 992.88c13.7,-53.71 25.55,-107.83 41.58,-160.79 17.2,-56.93 47.96,-105.43 100.98,-137.02 2.08,0.95 4.33,1.44 6.6,1.44 5.82,0 11.17,-3.18 13.95,-8.29 0.17,-2.22 1.09,-4.32 2.6,-5.96 31.86,-1.1 53.51,18.36 57.27,56.18 1.92,19.04 2.4,38.57 3.01,57.89 0.06,0.77 0.09,1.56 0.09,2.34 0,11.98 -6.66,22.96 -17.28,28.5 -18.02,10.76 -12.67,21.51 2.81,30.28 4.27,2.34 7.41,6.33 8.7,11.03 -2.19,12.13 -11.51,14.66 -21.65,16.17 -36.38,1.1 -66.32,16.92 -92.97,40.35 -2.17,4.1 -5.19,7.7 -8.84,10.55 -15.31,10.12 -28.88,22.77 -40.07,37.34 -18.57,7.74 -29.87,36.24 -56.8,20.01z"/>
  <path class="fil7" d="M496.42 134.19c23.5,-71.32 76.94,-120.1 135.65,-123.32 9.59,4.66 11.03,13.7 4.25,19.18 -30.49,23.64 -22.54,58.16 -23.98,88.17 -3.43,73.44 -12.06,146.81 -2.88,220.6 2.47,19.59 2.06,34.87 28.36,35.83 15.89,0.62 15.76,4.11 5.62,16.37 -41.52,-0 -82.97,-0 -124.35,-0 -10.48,-0.34 -17.2,-3.08 -6.24,-13.09 26.24,-23.91 26.99,-25.69 2.47,-50.28 -8.91,-8.97 -14.39,-17.74 -9.73,-29.8 5.69,-14.87 2.74,-28.78 -2.12,-42.95 -1.85,-5.34 -4.32,-12.2 -1.92,-16.58 20.01,-35.63 5.96,-69.88 -5.14,-104.13z"/>
  <path class="fil8" d="M1879.96 1120.72l-21.58 13.7c-9.93,-17.61 5.76,-29.66 9.87,-44.19 3.84,-13.7 10.41,-25.83 -7.67,-34.25 -7.35,-3.74 -12.46,-10.81 -13.7,-18.97 -6.85,-44.81 -32.13,-84.95 -32.27,-132.02 0.02,-1.86 0.05,-3.88 0.05,-5.79 0,-33.4 -5.28,-66.69 -15.61,-98.43 -2.48,-6.32 -3.77,-13.07 -3.77,-19.88 0,-4.66 0.6,-9.31 1.79,-13.82 5.07,-16.17 2.53,-25.9 -12.95,-36.51 -19.18,-13.02 -23.5,-67.55 -11.03,-89.88 10.07,-1.71 21.51,11.92 30.42,-2.81 15.89,0 14.46,15.35 20.55,24.05 -1.92,21.79 -0.34,42.82 14.18,60.77 14.52,17.95 14.32,40.56 10.89,57.82 -9.87,49.81 17.4,87.21 41.93,120.16 37.34,50.22 35.14,59.53 44.39,131.81 21.1,-9.93 18.77,-39.05 40.08,-48.37 -21.76,51.81 -54.38,98.43 -95.55,136.6l-0.03 0.01z"/>
  <path class="fil9" d="M1486.01 1870.5c12.55,-42.6 155.06,-27.39 182.27,-25.82 94.61,5.46 72.99,124.71 2.76,129.03 -76.48,4.7 -227.45,27.01 -185.03,-103.2z"/>
  <path class="fil10" d="M8.64 1956.53c5.62,-59.6 25.49,-116.05 39.19,-173.88 7.88,-33.23 16.24,-66.38 24.39,-99.54 1.77,-1.34 3.47,-2.79 5.08,-4.31 9.93,-8.08 0.82,-32.06 20.01,-29.6 15.69,1.99 19.39,20.01 24.53,33.71 14.66,76.59 9.52,153.6 5.27,230.6 -1.03,18.64 8.36,32.13 20.55,44.67 10.07,10.28 7.19,15.69 -6.85,15.35 -37.75,0 -75.36,0.34 -112.97,0 -10.22,-0.42 -26.59,3.97 -19.19,-17z"/>
  <path class="fil11" d="M652.62 387.67c-0.82,-0.82 -1.64,-2.47 -2.33,-2.4 -53.16,4.8 -45.97,-31.93 -50.7,-66.73 -9.25,-68.51 5.96,-135.72 1.85,-203.75 -0.96,-15.69 16.37,-31.86 -5.07,-46.72 -3.36,-2.33 3.01,-11.58 9.59,-15.55 15.48,-9.39 28.02,-21.17 26.1,-41.65 3.49,-5.69 8.84,-5.27 14.32,-4.38 9.32,2.6 19.32,-0.89 28.5,3.01 9.25,6.12 14.82,16.46 14.82,27.55 0,2.86 -0.38,5.72 -1.11,8.49 -15.69,83.58 -8.43,168.46 -14.73,252.59 0.14,1.13 0.21,2.28 0.21,3.42 0,1.14 -0.07,2.29 -0.21,3.43 -10.69,32.2 0,59.47 19.18,84.88 -4.87,0.91 -9.84,1.37 -14.8,1.37 -1.92,0 -3.85,-0.08 -5.75,-0.21 -6.17,-0.69 -13.85,1.85 -19.87,-3.36z"/>
  <path class="fil12" d="M1646 805.58c7.67,17.4 6.24,39.05 14.8,53.78 18.29,31.31 19.87,71.45 50.77,95.91 3.56,2.74 9.45,6.1 9.45,9.18 0,29.05 15.76,53.71 20.55,81.25 0.41,2.6 -4.32,7.88 -3.77,8.36 26.44,21.72 28.57,50.63 30.01,82.21 0.62,11.92 -0.41,24.87 0.34,37.06 1.78,28.02 11.51,35.21 36.31,23.16 -6.85,10 -14.39,18.91 -27.4,20.55 -21.65,12.47 -41.58,27.4 -62.21,41.52l0.34 0c-2.27,1.8 -5.08,2.79 -7.98,2.79 -1.99,0 -3.95,-0.46 -5.72,-1.35 -1.6,-1.84 -2.48,-4.2 -2.48,-6.64 0,-2.18 0.7,-4.29 1.99,-6.04 23.5,-30.42 15.07,-56.93 -9.25,-82.21 -20.21,-20.55 -16.03,-49.46 -20.21,-74.33 -10.29,-64.46 -24.72,-128.75 -41.99,-191.72 -2.49,-5.23 -4.69,-10.52 -6.59,-15.86 -2.12,-12.67 -24.18,-19.25 -16.37,-30.35 11.45,-16.72 18.09,-38.57 39.4,-47.27z"/>
  <path class="fil13" d="M1535.43 424.19l-33.78 -13.7c-1.37,-7.67 -21.03,-4.45 -11.1,-18.98 15.76,-23.02 12.2,-50.15 15.76,-75.84 10.69,-75.98 0.41,-151.68 -2.06,-227.45 -0.55,-16.58 -9.59,-30.21 -12.95,-45.83 -4.8,-22.33 -2.95,-36.65 25.49,-28.29 6.37,1.85 13.7,-1.3 19.59,3.84 31.44,-1.03 60.22,9.32 89.06,20.55 -8.43,8.91 -18.84,8.02 -29.46,6.3 -10.62,-3.84 -8.7,-3.36 -11.03,5.14 -8.29,30.01 -2.4,58.1 8.02,86.32 7.67,20.55 -4.87,39.8 -6.85,59.88 -5.96,60.9 -5.96,122.15 -12.47,182.92 -4.32,22.33 -9.87,43.36 -38.23,45.14z"/>
  <path class="fil14" d="M1824.13 661.71l-20.55 -20.55c-19.53,-15.89 -26.65,-35.56 -29.66,-61.66 -7.84,-74.5 -12.16,-149.76 -12.16,-224.77 0,-29.49 0.76,-59.5 1.78,-88.74 1.17,-34.25 4.73,-67.14 -1.23,-101.6 -5.96,-34.46 10.34,-45.7 41.79,-30.76 15.48,9.32 31.1,18.43 41.11,34.25 -17.27,6.85 -23.64,15.21 -22.47,37.2 3.49,65.15 1.3,130.65 1.3,196 -7.67,12.2 -18.09,24.18 -5.76,39.12 8.63,10.41 -0.48,19.32 -1.99,28.71 -1.51,9.39 -10.28,18.43 -2.6,25.55 24.94,23.09 12.81,49.05 8.43,74.74 -4.83,30.84 14.77,61.46 2.02,92.5z"/>
  <path class="fil15" d="M1502.13 928.34l47.41 -29.18c4.56,3.71 7.21,9.27 7.21,15.15 0,1.24 -0.12,2.48 -0.35,3.69 -18.5,24.73 -12.81,49.67 2.67,72.21 21.72,31.86 27.4,68.51 37.27,104.2 11.85,43.16 30.35,84.68 43.91,127.63 3.77,12.06 9.93,24.32 6.85,36.24 -5.27,19.73 9.87,21.03 20.55,27.4 -18.01,13.99 -39.21,23.43 -61.66,27.41 -10.34,3.08 -25.42,10.28 -17.47,-11.17 3.9,-10.55 -3.56,-14.32 -5.07,-21.31 -16.44,-75.36 -63.03,-137.84 -84.4,-211.35 -9.59,-32.88 -6.85,-65.36 -12.2,-97.69 -5.27,-18.43 -2.67,-33.57 15.28,-43.23z"/>
  <path class="fil16" d="M500.4 1792.1c-14.87,49.12 -36.65,93.79 -80.43,124.27 -15.47,5.32 -31.8,8.05 -48.18,8.05 -1.81,0 -3.67,-0.05 -5.47,-0.11 -28.5,-1.78 -51.72,-21.31 -45.08,-47.41 7.67,-30.07 1.23,-58.58 2.6,-87.69 -0.03,-0.64 -0.04,-1.31 -0.04,-1.96 0,-8.55 2.81,-16.86 8,-23.65 18.02,-9.93 20.55,-37.68 47.13,-38.98 11.24,-0.55 21.85,-5.14 31.24,4.52 7.26,6.85 13.7,15.21 20.55,22.54 3.68,4.87 9.43,7.74 15.54,7.74 4.06,0 8.02,-1.27 11.32,-3.63 29.18,-15.69 39.87,-8.22 40.69,26.37 0,0.12 -0,0.24 -0,0.36 0,3.31 0.73,6.58 2.13,9.57l-0.01 -0z"/>
  <path class="fil17" d="M774.64 695.96l-62.89 261.23c-2.64,2.76 -5.98,4.77 -9.66,5.82 -65.08,-5.76 -130.17,10.41 -195.39,-1.44 -3.32,-1.54 -5.82,-4.43 -6.85,-7.94 0.13,-3.5 2.12,-6.66 5.21,-8.29 11.78,-5.55 24.46,-3.7 36.86,-4.18 2.48,-0.08 5.14,-0.11 7.67,-0.11 11.89,0 23.87,0.82 35.63,2.36 -23.16,-14.87 5.82,-26.37 2.88,-41.11 -3.56,-17.67 1.17,-34.25 24.73,-35.42 3.22,0 3.56,-0.69 4.11,-3.56 7.53,-39.46 42.13,-58.64 65.22,-86.53 0.96,-2.97 2.4,-5.77 4.25,-8.29 13.36,-13.09 30.76,-22.47 37.68,-41.11 5.48,-13.09 13.15,-23.91 28.36,-26.51 9.79,8.29 13.22,-11.1 22.19,-4.93z"/>
  <path class="fil18" d="M337.48 1764.7c-3.69,10.41 -5.6,21.42 -5.6,32.47 0,2 0.07,4.05 0.19,6.04 0,22.81 19.11,46.24 -4.93,69.88 -9.32,9.11 18.22,40.28 34.25,42.61 19.53,2.81 38.91,-7.95 58.23,0.41 -31.17,29.12 -65.36,52.07 -109.61,54.19 -7.47,5.55 -16.1,2.53 -24.18,3.01 -15.15,-9.38 -24.37,-25.94 -24.37,-43.76 0,-1.93 0.11,-3.87 0.33,-5.78 0.37,-3.61 0.56,-7.28 0.56,-10.92 0,-17.94 -4.58,-35.6 -13.31,-51.28 -9.89,-18.51 -15.1,-39.21 -15.1,-60.21 0,-12.08 1.73,-24.11 5.1,-35.7 4.18,-15.07 -14.66,-26.31 -20.55,-40.69 -5.07,-26.17 20.96,-15.48 29.94,-25.21 23.29,4.59 48.37,0.69 69.54,14.8 5.13,17.33 28.91,27.4 19.52,50.15z"/>
  <path class="fil19" d="M1550.09 922.04c0,-7.6 -0.48,-15.28 -0.69,-22.88 37.91,-32.99 70.58,-71.77 96.61,-114.75l0 21.17c-3.19,4.63 -6.76,9.03 -10.63,13.09 -22.74,19.94 -17.88,38.23 -6.03,64.47 16.44,36.38 30.42,74.88 33.02,116.81 2.06,34.25 15.21,67.55 18.84,101.74 3.25,30.3 15.17,59.07 34.26,82.82 18.77,24.87 7.19,52.14 -14.94,73.24 -17.2,19.18 -19.32,19.18 -26.58,0.69 -19.32,-48.85 -30.21,-100.16 -43.16,-150.72 -7.8,-28.18 -13.17,-57.32 -15.88,-86.45 -0.96,-13.7 -2.4,-27.4 -18.77,-33.02 -7.88,-2.77 -13.3,-10.03 -13.72,-18.36 -0.69,-23.16 -16.65,-35.15 -32.34,-47.82z"/>
  <path class="fil20" d="M1804.19 134.19c-32.41,-11.85 -40.35,6.85 -34.25,31.93 16.37,67.07 -4.73,133.32 -0.75,200.05 4.32,72.55 5.89,145.1 16.03,217.59 3.08,22.06 18.5,36.86 18.29,57.68 -9.11,13.7 -18.29,6.85 -27.4,0 -2.76,2.66 -6.44,4.15 -10.27,4.15 -3.83,0 -7.52,-1.49 -10.28,-4.15 -27.4,-28.09 -6.85,-68.17 -24.94,-99.27 -13.7,-23.91 10.41,-50.56 6.1,-67.96 -9.04,-36.86 1.1,-71.52 -1.71,-107.01 -2.81,-35.49 4.11,-71.52 5.69,-107.42 1.3,-29.66 16.72,-58.44 -0.48,-89.68 -9.18,-16.85 4.73,-39.32 -1.23,-59.74 -1.58,-5.48 6.85,-8.56 12.26,-3.84 5.82,4.87 13.18,7.54 20.77,7.54 1.57,0 3.15,-0.12 4.71,-0.34 9.18,6.78 21.85,8.63 27.47,20.48z"/>
  <path class="fil21" d="M756 1739.01l40.76 -9.73c6.62,-1.67 13.45,-2.52 20.28,-2.52 6.83,0 13.66,0.85 20.28,2.52l35.14 14.66c-13.22,14.66 -30.21,2.81 -45.15,5.96 19.11,71.45 -8.77,143.87 7.88,215.73 15.48,5.41 34.73,-10.62 50.77,4.8 -50.56,29.32 -100.98,29.53 -151.34,-0.41 -7.55,-11.32 -16.64,-21.61 -26.93,-30.48 -14.11,-13.7 -15.83,-26.92 6.17,-31.24 44.26,-8.7 35.01,-46.79 43.02,-74.95 7.19,-25.35 -3.22,-43.84 -27.75,-54.33 -4.45,-1.92 -4.8,-7.26 -4.38,-11.92 6.37,-13.91 23.02,-16.11 31.24,-28.09z"/>
  <path class="fil22" d="M1947.56 1971.89c-55.11,21.9 -167.3,-4.54 -130.92,-92.23 25.16,-60.66 176.02,-52.88 192.6,20.26 6.84,30.19 -40.04,63.76 -61.68,71.96z"/>
  <path class="fil23" d="M1474.73 401.71c-1,0.02 -2.05,0.04 -3.07,0.04 -15.3,0 -30.53,-2.7 -44.88,-7.98 -4.39,-2.08 -8.6,-4.61 -12.48,-7.53 -15.07,-32.54 -2.53,-66.66 -4.32,-99.96 -3.77,-68.51 3.97,-137.02 -5.07,-205.53 -1.25,-8.75 -1.88,-17.62 -1.88,-26.44 0,-15.61 1.97,-31.2 5.85,-46.31 4.99,-0.37 10.03,-0.57 15.05,-0.57 5.01,0 10.05,0.2 15.04,0.56 32.27,16.1 35.76,48.98 40.63,78.03 4.08,19.4 6.17,39.24 6.17,59.08 0,8.37 -0.38,16.77 -1.12,25.11 -7.4,58.44 0,117.63 -7.53,176.21 -1.71,13.36 -0.75,26.72 -10.55,38.43 -6.43,7.75 13.98,6.79 8.16,16.86z"/>
  <path class="fil24" d="M1535.43 424.19c18.36,-9.04 24.11,-28.43 35.21,-43.37 31.58,-17.33 38.16,-51.52 41.72,-80.15 6.44,-50.7 16.24,-103.11 -2.81,-154.08 -3.22,-8.84 0,-17.74 2.19,-26.72 5.41,-25.62 12.13,-51.93 -19.94,-67.07 -5.34,-2.53 -5.27,-9.45 -0.62,-14.59l34.25 0c12.47,1.26 24.36,6.03 34.25,13.71 17.47,42.2 10.62,87.21 11.51,130.58 0.69,33.5 -1.58,67.96 -4.04,101.67 -4.38,59.53 -13.7,119.34 -54.4,167.37 -7.33,8.7 1.17,9.04 2.6,12.4 3.9,9.18 11.99,17.4 2.88,27.81 -25.76,-24.87 -50.77,-50.49 -82.83,-67.55z"/>
  <path class="fil25" d="M1495.28 970c-0.39,6.3 -0.58,12.74 -0.58,19.07 0,59.76 17.19,118.31 49.44,168.58 27.4,42.61 23.57,95.5 57.41,133.39 4.45,4.93 -4.45,8.77 -6.85,13.22 -7.88,16.03 7.74,4.59 10.55,8.5 -10.76,13.7 -28.02,12.4 -42.41,17.81 -1.96,-0.38 -3.96,-0.58 -5.96,-0.58 -2.61,0 -5.22,0.34 -7.75,0.99 -44.26,10.07 -45.76,8.5 -33.64,-36.31 0.98,-3.14 1.48,-6.42 1.48,-9.71 0,-2.4 -0.27,-4.8 -0.79,-7.14 -9.18,-36.65 -26.44,-73.51 -30.42,-108.66 -7.26,-63.58 -37.88,-121.67 -37.2,-186.07 8.84,-29.25 28.5,-18.5 46.72,-13.09z"/>
  <path class="fil26" d="M1474.73 401.71c-4.18,-8.84 -14.04,-5.48 -23.91,-11.3 23.84,-13.7 15.07,-36.24 17.74,-56.11 8.84,-65.43 4.59,-131.54 8.08,-197.24 2.12,-41.58 -4.93,-89.68 -36.11,-126.19 10.55,-6.85 22.61,-1.17 33.64,-4.11 2.02,-0.61 4.03,-1.35 5.96,-2.19 11.17,6.51 24.18,0 35.49,5.07 6.85,2.47 15.83,0.34 20.55,8.08 -43.02,0 -42.2,0 -26.72,44.81 2.65,10.39 4.02,21.1 4.02,31.83 0,3.61 -0.17,7.26 -0.47,10.85 -0.55,30.55 -3.36,61.66 11.92,89.47 7.53,13.7 -5.07,20.55 -5.41,31.38 -1.78,48.78 -9.25,97.49 -9.32,146.2 0,14.87 -26.58,21.37 -8.77,38.02 -9.11,-2.06 -19.45,-0.34 -26.71,-8.57z"/>
  <path class="fil27" d="M1550.09 922.04c23.91,2.6 40.01,12.06 38.23,39.94 -0.41,5.96 3.97,17.2 7.4,17.74 40.28,5.89 24.05,40.21 30.83,61.66 9.93,31.58 4.45,67.55 28.16,95.57 9.04,10.69 -9.66,20.9 -4.32,31.44 14.26,30.31 25.24,62.32 32.32,95.05 2.12,8.77 12.81,0 18.09,-5.82l14.39 0.48c-12.33,15.55 -29.66,22.2 -47.96,27.4l-32.06 3.22c13.7,-35.49 -3.7,-65.56 -14.04,-95.91 -17.2,-50.42 -38.09,-99.96 -47.13,-152.3 -3.49,-20.21 -19.11,-30.07 -23.5,-46.72 -6.15,-23.8 -37.32,-47.78 -0.4,-71.76z"/>
  <path class="fil28" d="M1495.28 1346.8c-26.1,13.29 -54.81,11.17 -82.76,15.07 -11.71,3.56 -23.77,1.1 -35.62,1.78 -16.72,0.82 -28.29,-1.92 -27.4,-23.91 3.22,-60.08 -9.25,-119.14 -13.7,-178.6 -4.45,-59.47 -34.73,-117.77 -14.8,-179.42 2.91,-4.34 7,-7.77 11.79,-9.86 6.44,-1.37 13.05,-2.08 19.64,-2.08 7.22,0 14.44,0.85 21.47,2.49 8.7,6.17 4.59,11.24 -1.64,15.62 -19.87,13.7 -16.78,32.06 -11.44,51.93 16.44,61.11 45.63,117.77 53.44,182.58 3.43,28.29 3.77,57.61 8.91,86.12 0.6,2.88 0.9,5.83 0.9,8.77 0,12.37 -5.32,24.16 -14.6,32.33 14.62,-5.24 29.83,-8.97 45.21,-11.04 3.72,-0.36 7.49,-0.57 11.23,-0.57 4.9,0 9.83,0.33 14.67,0.99 5.75,0.52 11.07,3.34 14.73,7.81l-0.01 -0z"/>
  <path class="fil29" d="M1481.58 1346.8l-27.4 0c-0.41,-1.03 -1.51,-2.53 -1.1,-3.15 35.42,-53.71 0,-102.76 -8.08,-154.28 -6.1,-39.19 -28.71,-74.13 -25.76,-115.1 0.96,-14.18 -7.53,-25.76 -14.39,-37.68 -13.15,-22.88 -12.26,-43.37 12.33,-58.64 13.15,-3.56 25.97,-4.38 36.93,5.82 -7.81,30.76 15.96,53.57 20.55,81.46 3.08,17.88 13.02,62.96 9.45,85.16 -0.16,0.97 -0.24,1.96 -0.24,2.94 0,4.57 1.73,8.98 4.83,12.33 28.09,37.13 25.14,83.51 38.09,125.16 5.27,17.13 -31.86,21.44 -9.04,38.71 13.15,10 27.88,-9.87 42.34,-0.82 0.96,0.55 1.85,1.3 2.74,1.92 -12.28,6.25 -25.88,9.53 -39.66,9.53 -0.11,0 -0.25,0 -0.35,0 -12.67,8.01 -28.29,-1.85 -41.24,6.64z"/>
  <path class="fil30" d="M1618.19 491.8c1.44,-11.65 -6.85,-18.77 -12.74,-26.99 -9.32,-13.22 -9.25,-12.4 6.17,-18.5 4.46,-3 7.71,-7.5 9.18,-12.67 9.8,-25.69 19.39,-51.52 28.36,-77.55 19.87,-56.93 5.76,-116.94 14.73,-175.31 5,-32.75 -8.63,-68.1 -1.44,-102.76 1.3,-6.44 -5.27,-8.36 -9.87,-11.85 -20.07,-15.21 1.78,-10.76 6.85,-14.18 13.02,8.56 31.04,6.85 41.72,20.55 -2.74,3.97 -21.44,-4.59 -9.93,7.74 11.51,12.33 11.58,20.01 3.15,33.78 -9.18,15.07 -15.35,30.42 -1.17,49.81 6.02,8.57 9.27,18.79 9.27,29.27 0,8.49 -2.13,16.86 -6.19,24.31 -10.41,20.55 -9.04,42.55 -10.21,65.36 -1.44,30.42 -0.96,63.1 -8.63,93.03 -10,38.78 -10.55,77.28 -11.03,116.46 0,18.22 -9.39,36.31 -14.46,54.81 -11.24,-18.54 -22.49,-36.98 -33.77,-55.29z"/>
  <path class="fil31" d="M140.93 1422.16c25.14,-104.27 49.12,-208.88 76.18,-312.68 9.77,-39.55 32.96,-74.55 65.57,-99 5.76,-1.1 9.87,-5.82 15.35,-7.19 13.29,-3.43 22.13,-22.68 38.98,-11.92 4.8,3.08 -11.24,48.3 -18.84,52.34 -7.6,4.04 -15.35,6.44 -16.03,15.89 -4.8,66.25 -45.22,119.96 -67.48,179.91 -11.99,32.34 -35.42,64.19 -49.94,98.38 -9.87,19.18 -8.43,41.11 -15.41,61.04 -4.87,12.82 -7.27,30.08 -28.37,23.23z"/>
  <path class="fil32" d="M179.91 1333.09c11.37,-32.61 13.22,-70.29 48.51,-90.09 1.94,-1.13 3.27,-3.06 3.63,-5.27 -2.26,-47.96 36.93,-80.36 45.7,-125.03 3.84,-19.59 14.39,-39.32 16.85,-60.49 0.02,-0.51 0.03,-1.04 0.03,-1.56 0,-1.77 -0.13,-3.54 -0.38,-5.29 33.64,-0.89 21.03,-37.2 41.11,-49.12 -24.39,-13.36 -29.32,30.69 -52.82,14.25l8.22 -17.67c23.5,4.66 32.47,-23.91 54.05,-23.64 8.51,-6.07 18.28,-10.17 28.57,-11.99 4.38,-1.19 8.9,-1.8 13.44,-1.8 6.17,0 12.31,1.13 18.08,3.31 4.7,2.34 8.28,6.46 9.93,11.44 -1.78,13.7 -13.7,12.67 -23.02,15.76 -23.77,8.02 -39.05,24.46 -39.87,49.33 -0.89,28.23 -8.77,53.78 -15.48,80.57 -7.67,30.83 -21.37,55.63 -36.24,81.59 -27.22,29.42 -47.67,64.52 -59.67,102.76 -8.91,29.05 -36.45,29.19 -60.63,32.96z"/>
  <path class="fil33" d="M1324.01 983.7c10.48,31.1 -2.88,62.68 5.69,95.43 17.69,70.02 26.99,142.08 27.42,214.35 0,17.88 5.82,35.08 0,53.78 -4.25,13.09 9.8,11.99 17.81,14.59 0.08,0.31 0.13,0.69 0.13,1.07 0,2.01 -1.41,3.74 -3.37,4.16l-20.07 -1.23c-9.04,-4.38 -19.39,0.34 -28.43,-4.04 -2.4,-2.2 -4.44,-4.77 -6.03,-7.6 -26.58,-29.66 -3.22,-64.67 -10.21,-97.21 -14.04,-65.15 -1.58,-133.59 -20.55,-198.68 -2.13,-11.16 -6.5,-21.8 -12.81,-31.24 -9.52,-11.78 -19.04,-24.32 -8.15,-39.8 10.14,-14.32 26.03,-11.58 40.69,-11.17 0.4,-0.02 0.8,-0.03 1.2,-0.03 6.41,0 12.5,2.79 16.69,7.64l-0.01 -0z"/>
  <path class="fil34" d="M179.91 1333.09c11.61,-6.6 23.75,-12.45 36.12,-17.46 13.7,-4.66 13.15,-15.83 18.64,-25.55 18.36,-32.41 22.88,-75.02 61.66,-93.92 13.7,6.85 9.11,18.43 5.89,28.71 -3.22,10.28 -8.7,20.55 -9.39,31.51 -1.54,4.41 -3.86,8.53 -6.86,12.12 -9.93,11.44 -16.99,23.84 -12.4,39.87 1.44,13.02 -6.17,22.95 -10.21,34.25 -4.59,13.02 -3.43,28.84 18.91,21.92 13.7,-4.32 28.57,-5 42.41,-9.66 6.59,-1.65 13.35,-2.66 20.14,-3.01 2.51,-0.28 5.04,-0.42 7.57,-0.42 1.04,0 2.09,0.03 3.12,0.07 13.15,2.26 30.14,-4.73 36.24,14.8 -12.95,13.7 -30.97,13.29 -47.27,15.69 -49.35,7.12 -97.38,22.6 -141.68,45.49 -23.93,12.45 -44.72,30.37 -60.63,52.15 -5.34,3.7 -10.55,8.08 -17.4,2.95 3.7,-20.55 3.29,-42.2 15.83,-60.49 27.06,-6.85 19.59,-32.13 24.32,-49.67 4.1,-13.85 2.31,-29.06 14.99,-39.34z"/>
  <path class="fil35" d="M501.9 860.38c-18.98,13.7 -17.47,-7.4 -22.95,-14.32 -7.95,-10 -4.11,-22.47 7.33,-24.11 30.55,-4.38 25.28,-26.65 20.55,-43.3 -6.17,-21.72 5.21,-44.87 -12.06,-66.73 -11.37,-14.39 -19.73,-27.4 -38.57,-29.6 46.57,-24.39 98.46,-37.18 151.08,-37.18 6.16,0 12.44,0.2 18.56,0.52 46.45,2.06 93.03,0.48 139.62,1.03 9.66,0 26.79,-5.27 16.51,16.17 -1.85,4.65 -6.34,7.68 -11.32,7.68 -0.59,0 -1.18,-0.04 -1.76,-0.13 -29.6,-10.41 -60.22,-5.07 -90.43,-5.82 -19.73,0 -39.39,0 -59.05,-0.48 -27.4,-3.77 -45.76,-1.51 -41.11,36.17 1.64,12.67 -6.85,32.13 -13.7,46.59 -13.7,30.07 -11.1,56.04 8.29,81.59 -18.36,21.64 -39.74,37.88 -70.98,31.92z"/>
  <path class="fil36" d="M496.42 134.19c9.04,8.29 6.85,21.72 22.06,30.14 16.99,9.18 5.14,38.09 -2.4,51.52 -4.5,7.05 -6.91,15.27 -6.91,23.64 0,5.7 1.12,11.37 3.28,16.64 5.48,15.28 10.69,28.64 0,44.26 -8.5,12.13 2.47,17.95 11.78,22.68 9.67,4.96 16.6,14.03 18.84,24.66 11.58,35.69 -17.27,31.38 -34.25,39.6 -12.35,2.71 -25.02,4.12 -37.68,4.12 -12.66,0 -25.33,-1.41 -37.68,-4.13 12.88,-52.89 25.55,-105.85 38.64,-158.67 7.6,-31.44 16.09,-62.74 24.31,-94.46z"/>
  <path class="fil37" d="M885.97 1970.23c-21.24,-2.19 -41.72,11.37 -66.93,0 0,-41.11 -0.75,-84.68 0.48,-128.45 0,-11.51 4.87,-22.95 6.37,-34.94 3.22,-25.21 0,-46.11 -22.47,-64.12 26.03,-13.22 47.34,7.74 69.06,0.96 10.56,0.86 20.38,5.78 27.41,13.71 -11.17,4.25 -10.28,14.73 -14.46,22.88 -19.18,37.41 -0.69,74.33 -5.76,110.5 -3.22,23.02 19.8,35.08 18.36,56.04 1.76,-0.72 3.65,-1.09 5.55,-1.09 3.8,0 7.46,1.47 10.2,4.1 -5.54,10.79 -15.85,18.36 -27.81,20.41l-0.01 0z"/>
  <path class="fil38" d="M914.05 1950.02c-11.3,-1.44 -18.36,7.53 -32.88,15.96 8.56,-21.51 10.76,-35.76 -4.93,-50.42 -14.52,-13.7 0.89,-35.14 -4.18,-53.71 -6.51,-23.84 -17.47,-50.01 6.17,-72.41 2.32,-3.03 3.58,-6.75 3.58,-10.56 0,-0.75 -0.05,-1.5 -0.15,-2.25 -2.26,-20.55 -2.53,-20.55 18.5,-19.04 26.95,20.67 46.27,49.81 54.81,82.69 1.6,5.48 2.42,11.17 2.42,16.88 0,5.71 -0.82,11.41 -2.41,16.88 -6.03,29.32 -13.84,57.89 -40.9,75.98z"/>
  <path class="fil39" d="M550.2 1580.28c-5.34,22.54 -5.21,46.24 -15.21,67.69 -3.84,3.01 -8.84,-5.07 -9.66,-1.23 -7.67,37.13 -32.95,41.52 -64.06,35.9 -5.04,-0.85 -10.18,-1.28 -15.3,-1.28 -4.05,0 -8.11,0.27 -12.11,0.8 -13.7,1.71 -23.71,-5.34 -33.23,-14.25 -14.45,-14.67 -32.38,-25.57 -52.06,-31.65 -6.37,-4.64 -10.14,-12.06 -10.14,-19.94 0,-0.64 0.03,-1.28 0.08,-1.92 0.92,-8.4 4.36,-16.33 9.86,-22.74 17.4,-14.32 32.13,-13.09 54.4,-3.43 30.21,13.22 66.11,6.1 98.52,0 14.73,-2.81 31.24,-2.4 45.01,-10.76l3.9 2.81z"/>
  <path class="fil40" d="M727.98 1765.11c39.6,26.79 50.77,104.13 19.32,142.16 -10.62,12.81 -30.62,1.85 -44.05,13.09 1.64,21.85 31.44,26.65 31.31,49.67 -72.96,-48.37 -79.47,-130.17 -33.43,-193.81 5.21,-7.26 10.07,-14.8 19.46,-17.27 3.29,1.17 7.4,1.58 7.4,6.17z"/>
  <path class="fil41" d="M707.43 956.84c0.51,-0.09 1.02,-0.14 1.53,-0.14 1.02,0 2.04,0.19 3,0.55 1.13,1.71 1.95,3.61 2.4,5.62 4.18,5.48 13.09,2.12 16.44,8.97 -35.76,64.95 -33.16,137.5 -40.42,207.92 -5.35,51.01 -8.43,102.21 -9.26,153.6 0.08,0.81 0.12,1.64 0.12,2.45 0,8.5 -4,16.5 -10.8,21.59 -7.37,2.19 -15.04,3.31 -22.73,3.31 -6.18,0 -12.37,-0.73 -18.38,-2.15 -4.18,-2.26 -7.95,-5.55 -7.4,-10.48 4.73,-42.61 4.32,-85.43 16.44,-127.77 19.32,-67.48 20.96,-137.98 26.31,-207.65 0.01,-0.56 -0.01,-1.19 -0.01,-1.77 0,-8.58 0.75,-17.17 2.2,-25.62 5.27,-15.76 18.77,-20.07 32.95,-23.36 2.76,-1.34 5.32,-3.05 7.61,-5.08l-0.01 -0.01z"/>
  <path class="fil42" d="M568.15 1524.92c-7.53,18.09 -4.59,39.53 -17.95,55.7l-0.89 -1.23c-2.4,-11.71 -12.2,-20.55 -21.24,-18.84 -35.49,5.89 -58.64,-13.29 -81.46,-34.87 -11.24,-10.69 -37.13,1.17 -38.23,-24.94 6.85,-17.47 -18.77,-38.23 5.41,-53.92 21.85,-5 42.27,-3.29 59.95,12.33 12.81,11.37 28.02,11.44 44.26,10.89 16.24,-0.55 33.71,-1.3 48.64,8.7 8.98,14.8 -3.83,30.62 1.51,46.17z"/>
  <path class="fil43" d="M433.39 1675.64c9.39,-6.85 18.64,-4.11 28.64,-0.89 29.25,9.39 47.96,-4.11 59.88,-29.8 4.25,-9.04 4.52,-8.91 13.09,3.01 -11.51,47.96 -23.04,95.91 -34.6,143.87 -8.08,-6.85 -1.85,-22.33 -6.44,-24.25 -8.29,-3.43 -8.08,-20.9 -22.61,-13.02 -35.97,19.46 -41.11,17.33 -65.36,-24.11 12.13,-16.79 12.88,-39.26 27.4,-54.81z"/>
  <path class="fil44" d="M118.25 1682.49c-14.66,-3.77 -8.08,-25.9 -24.25,-28.09 -11.17,6.85 0,30.21 -21.85,28.78 16.3,-63.94 32.63,-127.68 48.98,-191.21 14.18,-2.12 4.18,17.47 22.2,20.9 23.98,4.59 21.17,39.05 22.06,59.95 0.69,17.88 7.47,35.56 4.18,53.57 -18.91,16.1 -22.54,43.3 -42.61,58.51 -0.7,0.17 -1.42,0.25 -2.14,0.25 -2.44,0 -4.8,-0.95 -6.56,-2.64l-0.01 0z"/>
  <path class="fil45" d="M166.21 1627.68c-8.5,-27.4 -16.3,-54.4 -10.82,-84.33 2.4,-13.09 -13.29,-21.51 -24.25,-26.79 -12.67,-6.03 0,-19.25 -10,-24.6 -2.6,-4.73 0,-7.33 3.97,-9.39l13.22 -6.51c25.49,-21.58 30.69,-21.1 41.11,8.63 5.34,15.28 12.13,25.9 28.29,30.83 11.15,3.21 20.42,11.04 25.42,21.52 2.98,7.14 4.51,14.82 4.51,22.56 0,1.84 -0.09,3.7 -0.26,5.53 -9.39,16.85 -3.08,41.79 -26.44,51.59 -13.78,8.22 -26.38,21.44 -44.74,10.96z"/>
  <path class="fil46" d="M568.15 1524.92c-9.25,-15.14 -2.67,-31.79 -4.59,-47.61 0.96,-23.77 -11.17,-38.5 -29.18,-53.64 -29.25,-24.53 -58.92,-39.8 -98.31,-33.16 -2.95,0.61 -5.98,0.92 -9,0.92 -9.65,0 -19.05,-3.14 -26.76,-8.94 -4.11,-6.3 -1.23,-10.28 4.32,-13.7 51.79,-8.43 103.93,-2.12 155.79,-3.9 34.8,4.8 34.8,4.8 35.01,50.08 -9.04,36.49 -18.14,73.15 -27.27,109.96z"/>
  <path class="fil47" d="M1454.18 983.7l-41.11 0c-13.7,8.29 -24.25,2.74 -34.25,-6.85l-47.96 0c-0.69,-1.44 -1.3,-2.81 -1.92,-4.25l1.85 -4.25 4.45 -1.51c16.51,-3.01 34.25,5 49.88,-4.18 39.46,-9.52 79.54,-17.27 116.81,-34.25 -6.8,6.76 -10.64,15.97 -10.64,25.57 0,5.58 1.3,11.1 3.79,16.09 -5.41,0.48 -7.95,12.74 -12.4,6.85 -16.03,-21.65 -20.83,-2.88 -28.5,6.78z"/>
  <path class="fil48" d="M2073.82 1922.21c-12.45,-54.99 23.63,-72.4 63.18,-73.48 50.48,-1.39 250.9,-32.3 230.72,70.03 -14.16,71.81 -134.96,55.76 -180.53,55.02 -52.49,-0.85 -94.6,1.98 -113.37,-51.56z"/>
  <path class="fil0" d="M2022.8 867.23c5.69,-34.25 11.78,-68.51 17.06,-103.24 11.03,-72.07 16.51,-144.35 0.41,-216.42 -2.47,-13.86 -3.77,-27.98 -3.77,-42.08 0,-0.43 0,-0.92 0,-1.36 18.64,57.89 20.55,117.7 20.55,178.12 0,13.7 0,26.99 0,40.49 -6.85,10.82 0,23.91 -5.41,34.94 -11.92,35.83 -9.45,75.63 -28.84,109.55z"/>
  <path class="fil49" d="M282.68 1970.23l27.4 0c-40.35,15 -82.55,2.12 -123.32,8.02 -6.64,1.64 -13.49,2.47 -20.34,2.47 -6.85,0 -13.7,-0.83 -20.35,-2.47 -42.68,-0.48 -85.43,-1.78 -128.11,-1.03 -23.22,0.41 -21.24,-6.85 -9.18,-20.55 2.4,16.65 15.35,13.7 26.03,13.7 39.26,0 78.51,0 117.83,0 25.07,-18.84 54.19,-5.21 81.05,-9.93 16.92,-0.62 34.32,-2.33 48.98,9.79z"/>
  <path class="fil50" d="M433.39 387.67l75.36 0 143.87 0 20.55 0.34c2.19,1.23 2.88,2.47 2.12,3.63 -0.75,1.16 -1.44,1.78 -2.19,1.78l-238.82 0c-0.96,0 -2.74,-1.17 -2.74,-1.58 0.48,-1.44 1.1,-2.85 1.85,-4.17l-0.01 -0z"/>
  <path class="fil51" d="M844.45 5.05l157.57 -2.26c7.27,-1.57 14.73,-2.37 22.18,-2.37 5.88,0 11.77,0.5 17.56,1.48 1.65,1.62 2.58,3.84 2.58,6.15 0,1.55 -0.42,3.07 -1.21,4.4 -7.33,5.13 -16.06,7.88 -25.01,7.88 -0.79,0 -1.61,-0.02 -2.4,-0.06 -11.58,0 -23.16,0.69 -34.67,0 -13.36,-0.48 -26.72,0.62 -40.08,0 -13.36,-0.62 -26.37,0.55 -39.53,0 -11.1,0 -22.2,0 -33.3,-0.48 -0.23,-0 -0.48,0 -0.72,0 -7.19,0 -14.29,-1.82 -20.59,-5.28 -2.09,-1.23 -3.38,-3.48 -3.38,-5.91 0,-1.25 0.34,-2.48 0.99,-3.54l-0 0z"/>
  <path class="fil52" d="M844.45 5.05c0,1.85 0,3.63 0,5.41 -3.72,4.64 -9.1,7.66 -15,8.43 -9.96,1.1 -20.01,1.67 -30.04,1.67 -3.68,0 -7.43,-0.1 -11.08,-0.23l-30 0.01c-28.5,-2.88 -58.51,7.6 -85.43,-9.52 -9.04,-0.89 -18.77,2.26 -26.79,-4.45 66.32,-4.8 132.36,-2.33 198.33,-1.3z"/>
  <path class="fil53" d="M865 1366.19l-191.83 0 -1.03 -6.24 5.07 -3.77c53.23,-11.37 107.08,-2.6 160.65,-5.07 0.6,-0.02 1.22,-0.03 1.82,-0.03 7.55,0 15.01,1.71 21.81,4.97 2.64,1.2 4.33,3.83 4.33,6.73 0,1.19 -0.29,2.36 -0.83,3.41l-0.01 -0z"/>
  <path class="fil54" d="M673.18 1361.05c0,1.71 0,3.43 0,5.21l-67.69 1.51c-13.7,8.15 -27.81,0.55 -41.58,2.88 -20.55,-0.69 -40.76,1.58 -61.04,-1.37 -1.43,-1.5 -2.23,-3.5 -2.23,-5.58 0,-2.08 0.8,-4.08 2.24,-5.58 17.47,-11.1 37.13,-5.62 55.84,-7.26 0.23,0 0.69,0 0.92,0 38.01,0 76.17,3.42 113.56,10.18l-0.01 0.02z"/>
  <path class="fil55" d="M673.18 393.43c0,-1.78 0,-3.63 0,-5.41l20.55 -0.34c2.81,-2.94 6.2,-5.27 9.94,-6.85 35.14,-6.85 70.63,-1.03 105.98,-2.6 1.33,-0.05 2.7,-0.08 4.04,-0.08 4.3,0 8.61,0.29 12.87,0.84 5.54,0.45 10.91,2.16 15.69,4.99 1.99,1.26 3.21,3.45 3.21,5.8 0,1.27 -0.35,2.51 -1.01,3.59l-171.28 0.07z"/>
  <path class="fil56" d="M1166.44 964.38l164.42 0c2.26,1.3 3.01,2.53 2.26,3.84 -0.75,1.3 -1.51,1.92 -2.26,1.92l0 0c-30.08,6.59 -60.97,9.94 -91.8,9.94 -22.14,0 -44.39,-1.73 -66.22,-5.13 -3.94,-2.06 -6.39,-6.11 -6.39,-10.53 0,-0.01 0,-0.03 0,-0.04l-0 0z"/>
  <path class="fil57" d="M727.98 970c-0.26,0.01 -0.53,0.02 -0.79,0.02 -5.3,0 -10.2,-2.8 -12.91,-7.35l164.42 1.44c0.61,1.04 0.93,2.23 0.93,3.44 0,2.79 -1.7,5.31 -4.29,6.35 -14.87,7.26 -30.83,4.32 -46.38,5.27l-47.96 0c-17.75,-1.03 -37.07,4.52 -53.03,-9.18z"/>
  <path class="fil58" d="M1324.01 1360.5c9.25,1.1 19.32,-2.26 27.4,5.48l-164.42 0.41c-0.39,-0.97 -0.59,-2.01 -0.59,-3.05 0,-3.33 2.02,-6.33 5.12,-7.57 44.39,-5.69 88.85,-12.2 132.49,4.73z"/>
  <path class="fil59" d="M1186.99 1360.91c0,1.78 0,3.56 0,5.34l-164.42 0c-0.45,-1.01 -0.68,-2.1 -0.68,-3.21 0,-3.15 1.89,-5.99 4.8,-7.21 45.49,-9.93 91.6,-2.95 137.43,-4.45 0.5,-0.02 1.02,-0.04 1.52,-0.04 8.15,0 15.93,3.48 21.36,9.56l-0 0z"/>
  <path class="fil60" d="M1310.31 5.12l61.66 -2.33 102.15 3.97c-10.55,6.85 -22.4,2.81 -33.64,4.11l-34.26 0c-12.81,12.13 -28.91,8.91 -44.26,9.32 -9.32,0 -18.64,0 -28.02,-0.48 -0.15,0.01 -0.3,0.01 -0.45,0.01 -7.26,0 -14.42,-1.82 -20.79,-5.28 -2.06,-1.24 -3.32,-3.47 -3.32,-5.88 0,-1.21 0.32,-2.4 0.93,-3.44z"/>
  <path class="fil61" d="M844.45 393.49l0 -5.48c10.62,-11.71 25.01,-8.5 38.3,-9.8 1.9,-0.18 3.82,-0.28 5.72,-0.28 1.91,0 3.83,0.1 5.72,0.28 15.07,0.69 30.21,0 45.28,0 15.07,0 29.87,0 44.81,0.41 0.38,-0.01 0.78,-0.02 1.16,-0.02 7.17,0 14.24,1.78 20.55,5.16 2.25,1.19 3.65,3.52 3.65,6.06 0,1.25 -0.34,2.47 -0.98,3.53l-164.22 0.13z"/>
  <path class="fil62" d="M1022.57 1360.84l0 5.41 -157.57 0c0,-1.71 0,-3.43 0,-5.14 16.17,-15.69 36.58,-9.18 55.29,-9.87 26.1,-0.89 52.34,-0.69 78.51,0 0.54,-0.03 1.08,-0.04 1.63,-0.04 8.4,0 16.43,3.49 22.15,9.63l-0.01 0z"/>
  <path class="fil63" d="M1008.87 393.43l0 -5.41c2.42,-3.09 5.65,-5.46 9.32,-6.85 16.99,-4.45 34.25,-1.92 51.66,-3.01 11.24,0 22.47,0.41 33.71,0 16.65,0 33.36,0 49.94,1.64 3.69,0.68 7.23,2.05 10.41,4.04 2.22,1.19 3.6,3.51 3.6,6.03 0,1.26 -0.34,2.49 -1,3.56l-157.64 -0z"/>
  <path class="fil64" d="M1166.44 393.43c0,-1.85 0,-3.63 0,-5.48 9.04,-10.34 21.51,-8.77 33.23,-9.59 2.98,-0.18 5.98,-0.28 8.98,-0.28 2.99,0 6,0.1 8.98,0.28 31.86,2.6 64.26,-4.66 95.91,5.21 2.69,1.23 4.41,3.91 4.41,6.86 0,1.16 -0.27,2.31 -0.78,3.35l-150.72 -0.34z"/>
  <path class="fil65" d="M1166.44 964.38c0,1.78 0,3.56 0,5.34l-4.45 4.38c-23.9,4.17 -48.26,6.36 -72.56,6.36 -23.39,0 -46.78,-1.99 -69.81,-5.86 -2.8,-1.25 -4.61,-4.03 -4.61,-7.1 0,-1.18 0.27,-2.34 0.78,-3.4l150.65 0.27z"/>
  <path class="fil66" d="M1015.72 964.11c0,1.92 0,3.84 0,5.76 -3.78,4.47 -9.12,7.34 -14.93,8.01 -6.94,0.95 -13.98,1.46 -21,1.46 -0.69,0 -1.42,-0.02 -2.09,-0.02l-58.78 0c-13.7,-1.1 -29.05,2.4 -40.15,-10 0,-1.71 0,-3.49 0,-5.21l136.95 0z"/>
  <path class="fil67" d="M1310.31 5.12c0,1.85 0,3.7 0,5.55 -2.31,3.09 -5.45,5.47 -9.04,6.86 -10.39,2.16 -21,3.25 -31.62,3.25 -2.44,0 -4.94,-0.06 -7.37,-0.17 -12.74,-0.48 -25.49,0 -38.23,0l-21.58 -0.34c-0.73,0.02 -1.49,0.04 -2.22,0.04 -8.3,0 -16.53,-1.7 -24.15,-4.98 -2.94,-1.65 -4.76,-4.76 -4.76,-8.13 0,-0.28 0.01,-0.57 0.04,-0.84 0.67,-2.43 2.89,-4.12 5.41,-4.12 1.12,0 2.22,0.34 3.15,0.97l27.4 0 102.97 1.92z"/>
  <path class="fil68" d="M1173.29 5.12l0 5.76c-2.22,2.92 -5.24,5.14 -8.7,6.37 -5.22,1.69 -10.68,2.63 -16.17,2.74 -12.95,0 -25.83,0.82 -38.71,0.75 -4.69,0.08 -9.59,0.24 -14.32,0.24 -12.42,0 -24.83,-0.58 -37.2,-1.63 -5.96,-0.66 -11.4,-3.73 -15.07,-8.47 0,-1.78 0,-3.56 0,-5.34 15.48,-8.56 31.65,-4.25 47.96,-2.33l20.55 0c20.55,-2.4 41.51,-6.64 61.66,1.92z"/>
  <path class="fil69" d="M1317.16 393.43l0 -5.62c3.69,-4.32 8.83,-7.15 14.46,-7.94 9.38,-0.89 18.93,-1.41 28.37,-1.41 1.64,0 3.38,0.03 4.98,0.03 5.69,0 11.3,0 16.92,0 1.91,-0.17 3.84,-0.27 5.76,-0.27 11.44,0 22.64,3.29 32.27,9.46l6.85 6.03 -109.61 -0.27z"/>
  <path class="fil19" d="M1714.85 1258.49c18.09,-17.81 34.25,-38.23 62.21,-41.52 -16.69,19.08 -38.17,33.43 -62.2,41.52l-0 -0.01z"/>
  <path class="fil70" d="M563.56 1367.76l42.27 0c-3.43,15.71 -6.8,31.4 -10.14,47.07 -9.8,-14.18 5.14,-47.96 -31.93,-40.63 -2.12,-1.37 -2.88,-2.81 -2.26,-4.25 0.62,-1.44 1.1,-2.19 2.06,-2.19z"/>
  <path class="fil71" d="M774.64 667.94l7.33 -5.07c2.53,12.13 -3.7,22.33 -7.33,33.16 -6.85,0.41 -9.73,16.85 -20.01,5.41 -5.62,-7.67 -1.51,-13.7 2.74,-20.55 4.78,-5.47 10.68,-9.89 17.27,-12.94l-0.01 -0z"/>
  <path class="fil72" d="M1680.26 689.11l-8.63 -0.69 1.78 -60.97c13.7,19.18 3.84,41.11 6.85,61.66z"/>
  <path class="fil73" d="M1330.86 970l0 -5.76 54.4 -1.37c-16.44,16.03 -36.51,3.15 -54.4,7.13z"/>
  <path class="fil74" d="M727.98 1765.11l-7.4 -6.17c11.99,-6.3 20.21,-19.25 35.35,-19.94 -1.71,16.71 -17.06,18.84 -27.95,26.1z"/>
  <path class="fil35" d="M453.95 688.29c-0.82,6.85 3.43,16.58 -6.85,18.57 -6.85,1.3 -10.69,-5.62 -13.7,-11.51 4.18,-9.32 13.7,-4.45 20.55,-7.06z"/>
  <path class="fil75" d="M1481.58 1346.8c12.26,-11.99 27.4,-4.52 41.11,-6.44 -7.26,9.87 -18.15,5.21 -27.4,6.85l-13.7 -0.41z"/>
  <path class="fil76" d="M1755.62 641.15l20.55 0c-13.7,18.91 -3.43,37.95 2.6,54.81 4.59,13.15 0,36.31 26.17,35.69 4.7,0.15 8.43,4 8.43,8.7 0,1.33 -0.31,2.65 -0.89,3.84 -24.87,42 10.07,79.88 7.67,120.58 -3.43,58.03 21.24,111.33 32.61,166.89 0.89,4.32 2.47,10.41 5.62,12.06 49.05,25.9 10.48,53.51 2.06,80.5 -0.85,3.34 -1.56,6.78 -2.05,10.2 -7.84,12.54 -18.3,23.25 -30.63,31.38 -11.17,-20.55 -3.01,-44.33 -5.07,-63.51 -5.21,-47.48 -46.79,-85.57 -30.97,-137.77 4.8,-15.83 -18.7,-27.4 -21.58,-47.55 -6.44,-44.39 -39.53,-83.31 -28.23,-131.95 -4.87,-10.89 -13.7,-21.03 -6.85,-34.25 15.48,-11.51 20.55,-21.44 6.37,-41.11 -18.01,-24.39 10.28,-45.15 14.18,-68.51z"/>
  <path class="fil4" d="M1735.06 750.77c-2.26,12.33 17.06,20.55 6.85,34.25 -6.3,-1.44 -16.24,6.85 -18.15,-0.69 -3.08,-11.92 2.88,-23.91 11.3,-33.57z"/>
  <path class="fil77" d="M385.44 930.47l7.74 -7.88c28.5,-20.96 58.99,-37.75 94.41,-43.84l22.27 -10.89c4.56,-5.94 11.64,-9.43 19.13,-9.43 0.47,0 0.95,0.02 1.42,0.04 4.34,2.28 7.21,6.63 7.61,11.51 -3.7,10.76 -14.32,12.26 -22.54,17.06 -41.11,15.28 -78.44,39.32 -120.51,52.48 -5.14,-0.76 -9.53,-2.54 -9.53,-9.04z"/>
  <path class="fil78" d="M488.2 878.74l-94.41 43.84c-8.84,-8.7 0,-11.85 5.41,-13.7 28.84,-11.65 53.51,-36.44 88.99,-30.14z"/>
  <path class="fil79" d="M529.31 861.41l-19.32 6.44 -8.09 -7.47c24.81,-6.84 48.15,-18.51 68.52,-34.25 8.08,-12.67 17.13,-17.27 28.43,-3.43 -1.37,11.78 -10.96,16.72 -19.04,22.95 -15.77,8.28 -29.54,23.36 -50.5,15.75z"/>
  <path class="fil80" d="M385.44 930.47l6.85 5.55c2.88,11.99 -7.88,14.94 -13.7,21.03 -2.26,1.99 -4.45,4.04 -6.85,6.24 -7.74,8.02 -17.74,5.55 -27.4,5.89 6.85,-20.55 21.92,-31.99 41.11,-38.71z"/>
  <path class="fil81" d="M234.72 1970.23l-82.21 0c-23.77,-17.4 -46.93,-31.86 -30.14,-70.36 8.36,-19.18 0,-45.63 -0.62,-68.51 -1.14,-49.46 -2.28,-98.95 -3.43,-148.46l6.85 0c37,21.03 65.36,48.57 71.59,93.17 -0.33,10.93 -0.47,22.49 -0.47,33.62 0,40.19 2.17,80.81 6.22,120.71 1.1,12.6 5.27,21.17 17.81,25.55 6.52,1.87 16.52,2.28 14.4,14.27z"/>
  <path class="fil82" d="M700.58 387.67l-6.85 0c-30.42,-11.17 -41.45,-32.75 -29.94,-62.82 7.26,-18.7 4.73,-39.67 3.01,-55.84 -4.87,-45.7 11.03,-90.36 0,-137.02 -3.84,-16.65 1.3,-47.27 9.93,-69.95 3.03,-6.98 4.6,-14.54 4.6,-22.15 0,-10.23 -2.83,-20.29 -8.16,-29.02l89.06 0c-37.34,41.11 -47.96,90.29 -51.93,143.87 -2.19,29.32 -1.03,58.51 -3.01,87.56 -2.67,40.56 -4.73,80.77 3.08,120.99 0.12,1.07 0.19,2.15 0.19,3.23 0,8.19 -3.66,15.96 -9.99,21.16l-0 -0z"/>
  <path class="fil83" d="M1591.2 38.28c1.1,3.22 1.23,8.15 3.43,9.32 26.86,14.59 38.91,43.71 26.1,72.41 -2.86,5.28 -4.36,11.2 -4.36,17.2 0,7.09 2.09,14.03 6,19.94 16.3,29.53 0,61.66 4.18,93.1 5.34,41.11 -15.55,78.86 -25.21,118.04 -4.52,18.57 -19.59,10.48 -30.69,12.6 -7.4,-53.09 1.85,-105.92 3.36,-158.74 1.1,-39.8 20.55,-78.31 -1.64,-119.41 -10.14,-18.77 10.41,-44.12 -2.12,-67.35 -1.51,-2.88 14.11,-4.39 20.96,2.87z"/>
  <path class="fil84" d="M433.39 1675.64c-4.87,20.55 -1.44,44.94 -27.4,54.81 -22.27,2.74 -52.27,-8.36 -52.48,32.27 0,9.11 -10.14,3.9 -16.03,1.99 -1.37,-18.36 -21.24,-28.78 -20.55,-47.96 -6.51,-19.46 0,-39.19 1.1,-58.23 0.38,-13.94 11.8,-25.06 25.76,-25.06 2.51,0 5.01,0.37 7.41,1.09 28.09,-9.45 38.71,17.74 56.79,28.43 8.29,4.93 13.83,14.18 25.41,12.67z"/>
  <path class="fil85" d="M576.72 839.83l21.17 -15.55 4.11 -0.69c6.85,-1.5 13.04,-5.15 17.68,-10.41 3.84,-4.75 8.49,-8.81 13.7,-11.99 19.39,-4.18 31.1,-26.72 53.98,-22.68 0,23.16 -22.74,26.99 -35.08,39.32 -18.02,18.09 -24.87,39.19 -27.06,65.08 -9.39,6.03 -10.69,-20.55 -21.65,-8.97 -7.33,7.81 -15.89,17.88 -6.85,29.94 6.44,8.29 -1.03,11.58 -4.52,16.85 -10,15.07 -9.8,15.21 5.34,28.91l-88.79 0c-35.83,-3.63 -37.68,-8.22 -19.53,-39.32 7.3,-11.02 16.22,-20.93 26.38,-29.38l20.55 -13.7c11.65,-11.99 32.47,-10.62 40.56,-27.41z"/>
  <path class="fil86" d="M515.61 880.93c4.32,15.89 -12.13,23.98 -18.36,30.69 -21.51,23.22 -8.02,29.73 11.17,37.48l-6.85 0c-25.35,18.22 -55.7,3.84 -82.55,12.74 -15.55,-4.25 -32.27,0.55 -47.61,-5.82l20.55 -20.55c40.56,-19.8 80.02,-41.99 123.66,-54.53z"/>
  <path class="fil87" d="M371.74 956.3l47.96 -0.48c13.52,-2.41 27.35,-3.64 41.11,-3.64 13.76,0 27.58,1.23 41.12,3.63 68.51,5.14 137.02,-8.77 205.53,0.89 0.05,1.02 0.09,2.05 0.09,3.06 0,1.01 -0.04,2.04 -0.1,3.05 -11.51,5.62 -24.46,4.59 -36.38,8.15 -36.04,3.49 -72.21,0.69 -108.31,1.78 -37.68,0 -75.36,0 -112.97,0 -1.35,0.06 -2.73,0.09 -4.09,0.09 -13.47,0 -26.79,-2.96 -39,-8.66l-34.25 -1.03c-0.69,-2.19 -0.69,-4.52 -0.69,-6.85z"/>
  <path class="fil88" d="M763.2 683.84c-3.49,5.55 -9.93,9.66 -8.56,17.61l-27.4 28.29c-6.1,11.65 -12.95,22.4 -27.4,24.18 -15.07,-12.06 -0.48,-19.32 4.45,-28.23 21.17,-14.39 29.32,-43.64 57.34,-50.08 0.62,0 1.71,1.3 2.33,2.19 0.44,0.77 0.68,1.64 0.68,2.52 0,1.31 -0.52,2.57 -1.44,3.51z"/>
  <path class="fil89" d="M686.88 778.17c-18.64,8.97 -31.86,28.71 -55.49,27.4 -12.6,-1.85 -5.48,-6.85 -1.92,-11.51 17.47,-9.18 30.9,-24.87 49.94,-31.65 0.69,-0.12 1.39,-0.18 2.09,-0.18 2.4,0 4.75,0.71 6.76,2.03 0.66,1.04 1.01,2.24 1.01,3.46 0,1.81 -0.76,3.54 -2.11,4.76 0.13,2.05 -0.28,3.9 -0.28,5.68z"/>
  <path class="fil90" d="M687.36 772.69c0,-2.67 0,-5.27 -0.55,-7.95 0.82,-8.43 7.88,-10.62 13.7,-13.7l26.44 -21.1c-1.1,25.21 -21.92,32.54 -39.6,42.75z"/>
  <path class="fil85" d="M501.9 956.3l-82.21 0c26.51,-13.36 54.81,-3.29 82.21,-6.44l0 6.44z"/>
  <path class="fil91" d="M234.72 1970.23c-33.43,-6.85 -41.11,-23.64 -41.58,-59.88 -0.55,-33.84 -4.45,-68.99 -5.27,-103.72 0,-9.87 -3.97,-20.55 5.89,-28.02 4.14,-9.53 6.29,-19.83 6.29,-30.23 0,-1.77 -0.06,-3.57 -0.19,-5.32 -2.12,-15.89 5.07,-22.95 21.31,-19.25 17.61,14.59 31.38,26.51 21.99,56.25 -5.41,17.33 -1.37,42.95 8.29,66.04 9.66,23.09 33.5,45.42 16.99,77.96 -5.21,10.34 9.04,30.55 14.39,46.24l-48.1 -0.07z"/>
  <path class="fil92" d="M351.18 1634.53c-19.94,9.59 -33.71,20.55 -25.01,47.34 3.08,9.59 -5.82,23.16 -9.25,34.87 -22.74,-4.93 -47.13,-1.99 -68.51,-13.7 -1.53,0.39 -3.1,0.58 -4.68,0.58 -8.71,0 -16.32,-5.87 -18.54,-14.28 -6.44,-27.4 -26.58,-51.52 -17.88,-82.21 13.7,-1.85 18.64,-10.34 15.62,-23.16 -2.6,-10.82 0,-17.06 11.78,-17.95 38.71,11.03 79.81,16.65 109.61,47.96l6.85 20.55z"/>
  <path class="fil93" d="M207.32 1607.13c4.59,21.99 20.55,40.15 19.25,64.67 -0.89,14.04 8.56,25.01 21.85,31.24 -5.34,2.06 -1.1,27.4 -16.85,6.85 -2.19,-2.88 -6.85,8.97 -10.55,13.7 -7.88,4.93 -21.17,5.69 -13.7,21.31 7.47,15.62 -1.03,25.69 -13.7,33.5 -17.81,-17.2 -14.46,-45.63 -35.01,-62.68 -11.78,-9.73 -33.64,-11.1 -33.5,-33.23 11.85,-19.66 12.67,-47.61 41.11,-54.81 15.79,-1.44 30.49,-8.79 41.11,-20.56l-0.01 0z"/>
  <path class="fil94" d="M1419.92 387.67l-41.11 0c-9.32,-5.34 -17.27,-12.67 -16.51,-23.91 2.47,-34.94 -4.04,-69.33 -2.19,-104.75 0.65,-15.3 1.12,-31.02 1.12,-46.39 0,-42.95 -2.93,-86.26 -8.68,-128.74 -1.48,-9.56 -2.26,-19.36 -2.26,-29.09 0,-11.73 1.12,-23.51 3.3,-35.02 0.86,-3.28 2.45,-6.33 4.67,-8.9l47.95 0c3.22,6.3 9.87,8.97 7.95,19.8 -1.8,12.13 -2.74,24.46 -2.74,36.73 0,22.57 3.11,45.06 9.19,66.78 4.18,16.24 -6.03,28.36 -5.21,42.61 2.26,38.23 -2.81,78.03 2.4,114 4.72,33.43 -12.68,65.56 2.12,96.87z"/>
  <path class="fil95" d="M1324.01 983.7c-2.82,-0.19 -5.66,-0.31 -8.49,-0.31 -2.83,0 -5.68,0.11 -8.49,0.31 -12.74,1.85 -28.5,-6.85 -37.54,8.29 -10.41,17.2 7.26,22.47 15,32.47 11.51,14.94 11.03,34.25 13.22,51.79 3.9,30.9 14.18,60.15 8.56,93.99 -5.62,33.84 4.32,70.09 10.21,104.89 2.53,14.8 5.89,26.24 -4.45,40.49 -10.34,14.25 16.1,22.33 11.99,37.88 -17.47,7.19 -35.69,1.51 -53.44,3.36 -22.2,-17.61 -24.32,-44.46 -26.24,-68.51 -7.74,-97.56 -1.71,-196.49 -30.28,-291.92 -1.99,-6.85 -3.43,-13.7 4.73,-17.61 15.89,-4.18 32.68,0 48.44,-5.34 21.17,1.64 42.75,-3.84 63.65,3.22l0 -0.01 -6.85 6.99z"/>
  <path class="fil75" d="M1378.82 976.85l34.25 6.85c-11.37,20.55 -14.59,40.35 6.03,58.16 4.34,3.64 6.85,9.03 6.85,14.69 0,0.01 0,0.02 0,0.04 -8.91,41.65 20.55,75.36 23.43,115.51 2,28.39 9.46,56.15 21.93,81.73 19.94,38.57 6.85,65.43 -17.2,92.9 -13.37,4.5 -27.43,6.8 -41.54,6.8 -8.61,0 -17.24,-0.88 -25.68,-2.56 27.06,-3.29 33.64,-24.11 29.32,-35.01 -10.96,-27.81 11.44,-58.3 -11.65,-84.88 -11.3,-13.02 3.63,-33.36 -3.9,-51.38 -19.73,-47.07 -31.65,-97.01 -51.72,-144.28 -2.37,-5.39 -3.6,-11.23 -3.6,-17.12 0,-19.98 13.95,-37.25 33.48,-41.45l0 -0z"/>
  <path class="fil96" d="M289.53 1257.73c-2.66,-3.65 -4.1,-8.07 -4.1,-12.6 0,-5.52 2.14,-10.83 5.96,-14.8 5.12,-5.76 7.95,-13.22 7.95,-20.93 0,-4.6 -1.01,-9.16 -2.95,-13.32 2.09,-14.65 8.64,-28.33 18.7,-39.19 8.02,-8.84 15.89,-15.83 7.47,-29.05 -0.89,-2.05 -1.35,-4.26 -1.35,-6.5 0,-3.25 0.98,-6.43 2.79,-9.12 21.72,-22.13 18.02,-49.26 18.7,-76.66 1.17,-43.84 34.25,-56.86 70.15,-65.49 8.08,-5.76 16.99,-2.95 25.69,-2.6 12.2,32.82 -19.8,47.13 -29.6,70.84 -4.66,3.36 -13.7,1.51 -15.14,6.51 -10.21,29.94 -37.95,54.26 -37.68,85.98 0.34,43.3 -24.6,74.47 -41.11,109.61 -4.39,10.48 -10.83,20.89 -25.49,17.33z"/>
  <path class="fil97" d="M440.25 970l-27.4 0 -6.51 -5.76 157.23 0c0.72,1.06 1.1,2.32 1.1,3.6 0,2.36 -1.29,4.53 -3.36,5.66 -4.76,2.8 -10.11,4.47 -15.62,4.87 -12.81,1.1 -25.69,0.89 -38.57,0.96 -15.21,0 -30.35,0 -45.56,0 -8.07,-0.08 -15.77,-3.45 -21.3,-9.32l-0.01 -0z"/>
  <path class="fil98" d="M1262.35 1353.65l61.66 0 0 6.85 -137.02 0.55 -20.55 -0.82c-0.09,-0.57 -0.15,-1.15 -0.15,-1.74 0,-3.35 1.68,-6.48 4.47,-8.33 14.52,-8.02 30.62,-4.66 46.04,-6.24 15.69,0.68 32.33,-2.74 45.56,9.73z"/>
  <path class="fil99" d="M440.25 970l20.55 0c9.87,3.77 21.24,8.5 12.67,21.24 -29.87,44.46 -30.49,95.91 -39.87,146.2 -5.34,28.16 -6.85,56.11 -41.11,76.94 -27.4,16.78 -25.9,63.17 -33.78,97.28 -3.84,16.72 -6.03,33.5 -14.8,48.51l-20.55 0c-18.64,6.44 -19.94,-6.24 -15.96,-17.4 17.47,-49.05 20.55,-101.67 36.45,-150.72 11.71,-36.24 15.21,-74.68 32.13,-109.61 7.8,-16.01 17.94,-30.85 30.01,-43.93 0.68,-28.15 29.6,-42.19 34.25,-68.5z"/>
  <path class="fil100" d="M344.33 1360.5c3.49,-52.14 4.93,-112.63 40.28,-147.02 44.87,-43.71 41.11,-93.03 48.98,-143.39 3.94,-25.67 13.42,-50.23 27.75,-71.87 7.67,-11.3 11.3,-18.64 -0.41,-27.88l47.95 0.01c2.19,2.34 3.4,5.42 3.4,8.61 0,1.75 -0.37,3.49 -1.07,5.09 -24.18,37.48 -33.5,79.13 -40.35,122.84 -11.17,66.81 -30.39,132.38 -56.66,194.86 -26.24,4.11 -23.09,29.6 -32.88,45.63 -7.19,11.85 -20.96,6.85 -30.01,12.95l-6.98 0.18z"/>
  <path class="fil101" d="M351.18 1360.5c33.3,-14.25 35.49,-43.02 33.91,-73.37 17.81,-3.56 10.62,13.7 16.37,19.46 1.85,-1.23 4.59,-2.06 5.14,-3.63 18.84,-58.1 37.13,-116.46 56.32,-174.35 5.82,-17.47 -0.34,-34.87 2.95,-52.96 4.38,-24.6 25.97,-44.26 17.95,-72.89 -2.4,-8.5 11.78,-18.36 24.8,-18.91 16.37,22.81 8.84,47.96 7.88,72.76 -11.68,34.1 -18.4,69.89 -19.86,105.92 -0.55,42.95 -19.11,83.31 -34.25,122.84 -8.5,25.07 -20.55,48.96 -35.62,70.7 -5.4,0.83 -10.87,1.25 -16.33,1.25 -1.41,0 -2.84,-0.03 -4.24,-0.08 1.6,-0.17 3.23,-0.25 4.85,-0.25 5.34,0 10.66,0.9 15.7,2.65 0.63,1.33 0.95,2.78 0.95,4.25 0,1.86 -0.52,3.69 -1.5,5.27 -6.25,1.25 -12.65,1.89 -19.03,1.89 -3.94,0 -7.89,-0.25 -11.8,-0.72l-3.36 -3.97c-12.06,-10.55 -27.14,-3.9 -40.84,-5.82z"/>
  <path class="fil102" d="M405.99 1038.51c0.41,1.03 1.44,2.67 1.1,3.08 -30.76,38.64 -31.79,88.51 -49.81,131.95 -5.51,11.07 -9.29,22.98 -11.1,35.21 -3.26,46.67 -13.82,92.75 -31.11,136.27 -4.45,11.65 -1.1,14.18 8.7,15.55 -18.02,5.62 -36.11,11.03 -54.12,16.92 -6.85,2.26 -9.73,1.85 -10.89,-6.85 -1.64,-12.47 -15.89,-26.72 -1.71,-36.51 11.93,-7.89 7.82,-19.12 11.93,-28.44 7.19,-12.81 7.88,-27.81 13.7,-41.11l6.85 -6.85c25.01,-32.34 54.05,-64.33 53.85,-107.22 0,-44.53 33.71,-74.13 42.48,-114.27 3.22,-14.59 13.29,-2.33 20.14,2.26z"/>
  <path class="fil103" d="M227.87 1538.62c-10.34,-7.88 -18.09,-19.8 -34.25,-18.09 -14.04,1.51 -17.06,-11.85 -18.22,-20.55 -3.36,-23.91 -9.87,-39.05 -37.27,-24.11 11.51,-25.14 33.91,-38.84 55.77,-53.09 10.48,3.43 18.57,-9.18 29.32,-4.38 19.66,23.29 30.28,52.27 47.96,76.66 -5,23.84 -15.9,41.86 -43.3,43.57z"/>
  <path class="fil104" d="M221.02 1422.16c-8.97,-2.4 -17.27,12.54 -26.65,1.1 61.11,-36.58 128.93,-49.53 198.68,-56.79l-0.48 2.67c1.89,1.78 2.95,4.25 2.95,6.84 0,1.08 -0.19,2.15 -0.55,3.17 -16.99,18.57 -41.11,7.33 -60.9,14.73 -14.73,2.95 -29.94,3.56 -44.19,8.97l-13.7 4.59c-17.88,6.45 -36.43,11.43 -55.14,14.72l-0.01 0.01z"/>
  <path class="fil96" d="M282.68 1264.59c0.69,15.41 9.87,33.71 -13.7,41.11 -13.7,-19.94 1.03,-30.07 13.7,-41.11z"/>
  <path class="fil105" d="M632.07 798.72c-2.88,2.26 -8.84,4.25 -0.62,7.4l-6.85 11.37c-6.29,5.69 -14.48,8.85 -22.97,8.85 -1.27,0 -2.55,-0.08 -3.81,-0.21l0 -2.4c-9.93,-9.32 -18.57,-1.51 -27.4,2.06 -16.92,-9.25 -28.16,-20.55 -21.51,-42.68 7.95,-25.83 1.71,-55.84 23.22,-77.76 1.23,-1.87 1.89,-4.06 1.89,-6.3 0,-0.67 -0.06,-1.34 -0.17,-1.99 -4.66,-42.48 -4.73,-42.48 37.75,-42.41 31.1,4.38 35.76,26.03 32.95,51.66 -2.4,22.33 -7.67,44.87 11.44,63.17 -0.28,16.17 -15.76,19.45 -23.92,29.25z"/>
  <path class="fil106" d="M652.62 771.32c-33.43,-12.26 -21.44,-39.19 -16.85,-60.56 5.62,-26.24 -1.99,-43.37 -24.18,-55.9l68.51 0c3.97,4.25 14.94,4.38 13.7,7.19 -9.87,25.9 14.59,44.46 13.7,68.1 0,7.67 -15.28,10.14 -6.85,20.55l-13.7 13.7 0 -2.6c-13.22,-2.95 -18.91,21.23 -34.32,9.52z"/>
  <path class="fil107" d="M707.43 730.22c0.01,-0.17 0.01,-0.36 0.01,-0.54 0,-9.06 -5.93,-17.05 -14.6,-19.67 -13.7,-5.07 -23.02,-11.37 -6.37,-25.28 15.21,-12.74 1.51,-21.03 -6.3,-29.8 21.03,0 42.06,0.62 62.96,-0.41 1.53,-0.21 3.09,-0.33 4.64,-0.33 10.71,0 20.76,5.25 26.87,14.03l-11.44 15.89c-20.55,-8.77 -15.14,15.41 -25.76,20.55 -10.62,5.14 -20.08,16.85 -30.01,25.55z"/>
  <path class="fil37" d="M891.38 1766c16.78,14.59 10.14,27.75 16.3,41.11 -22.13,-9.46 -12.95,-23.29 -16.3,-41.11z"/>
  <path class="fil108" d="M412.84 1497.52c0.96,3.22 1.51,9.04 2.95,9.25 34.25,5.34 56.59,31.24 83.99,48.44 4.11,2.6 12.6,-1.71 19.04,-2.74 20.55,-3.29 32.82,3.43 30.49,26.58 -32.68,21.37 -70.09,24.18 -106.74,22.13 -19.73,-1.1 -46.65,13.29 -60.56,-16.51 -0.75,-1.58 -20.14,5.62 -30.83,8.77 -8.71,-26.06 -13.18,-53.36 -13.18,-80.83 0,-2.39 0.03,-4.84 0.09,-7.2 -1.6,-2.84 -2.44,-6.06 -2.44,-9.32 0,-1.17 0.11,-2.34 0.32,-3.49 26.37,-9.73 52.13,-10.21 76.86,4.93z"/>
  <path class="fil109" d="M344.33 1504.37c0.55,29.8 12.6,58.78 6.85,89.06l-6.85 20.55c-18.91,-7.4 -34.25,-28.71 -58.58,-14.39 -6.85,-26.31 -37.68,-16.85 -51.04,-33.57 -4.54,-7.29 -6.95,-15.72 -6.95,-24.31 0,-1.03 0.04,-2.07 0.11,-3.09 18.91,-8.5 27.4,-27.4 41.11,-41.11 25.96,-6.85 50.69,-0 75.35,6.85z"/>
  <path class="fil110" d="M673.18 983.7c4.52,49.46 -4.11,98.59 -8.84,147.23 -4.59,47.41 -10.62,96.39 -30.21,141.95 -3.77,8.77 -20.01,28.23 7.6,40.21 8.97,3.9 -16.92,23.64 -16.44,40.42 -17.33,7.47 -35.56,1.58 -53.16,3.49 -6.1,0 -12.74,-1.92 -9.18,-9.52 15.69,-33.09 4.38,-73.24 27.81,-104.13 1.46,-1.72 2.27,-3.92 2.27,-6.18 0,-0.06 -0,-0.12 -0,-0.18 -6.03,-44.05 20.55,-79.95 31.86,-119.48 12.2,-43.5 4.66,-88.51 17.95,-131.06 1.37,-3.04 3.81,-5.48 6.85,-6.85 2.76,-1.32 5.8,-2.01 8.86,-2.01 5.5,0 10.77,2.21 14.63,6.12l-0.01 0z"/>
  <path class="fil111" d="M727.98 970l54.81 0c2.47,9.45 -5.34,11.1 -10.96,14.25 -14.93,7.25 -24.42,22.41 -24.42,39.01 0,4.28 0.64,8.55 1.89,12.64 2.01,7.1 3.04,14.45 3.04,21.83 0,14.21 -3.8,28.19 -10.98,40.45 -2.24,2.09 -4.88,3.72 -7.74,4.8 -12.13,3.36 -10.41,14.18 -10.28,22.33 0.89,40.08 2.6,82.55 -6.85,119.21 -10,38.09 18.98,76.87 -9.18,110.92 -5.97,0.98 -12.08,1.5 -18.15,1.5 -3.86,0 -7.76,-0.22 -11.58,-0.61l-4.38 -2.67c-0.03,-4 -0.03,-7.96 -0.03,-11.92 0,-73.81 4.43,-147.86 12.81,-220.98 4.45,-38.5 18.43,-75.98 11.71,-115.51 -3.94,-24.97 29.02,-15.86 30.32,-35.25z"/>
  <path class="fil112" d="M563.56 1353.65l61.66 0 47.96 0 0 0c2.26,1.51 3.01,2.88 2.19,4.25 -0.82,1.37 -1.58,2.06 -2.4,2.06l0.41 1.03 -116.94 -1.37c-0.89,-1.02 -1.39,-2.34 -1.39,-3.7 0,-1.36 0.49,-2.67 1.39,-3.7 0.82,-0.41 1.73,-0.63 2.64,-0.63 1.72,0 3.36,0.76 4.48,2.07l-0 -0z"/>
  <path class="fil113" d="M673.18 983.7l-27.4 0c-2.07,-2.24 -3.22,-5.18 -3.22,-8.23 0,-1.9 0.45,-3.78 1.31,-5.47 8.63,-6.51 19.94,0 28.71,-5.76l34.25 -1.03c-8.29,11.1 -26.18,7.33 -33.64,20.49z"/>
  <path class="fil114" d="M405.99 1381.05c16.65,0 33.36,0 50.08,0.55 21.92,0.62 43.84,-7.6 60.56,20.55 11.44,19.11 43.37,19.53 53.03,49.19 4.87,14.87 -0.69,18.02 -6.1,25.69 -35.42,0 -73.24,13.7 -103.24,-17.67 -13.7,-14.32 -32.88,-0.55 -47.48,-9.73 -11.78,-11.51 -11.3,-29.18 -21.03,-41.65 -15.27,-19.6 -2.67,-24.39 14.18,-26.93z"/>
  <path class="fil115" d="M405.99 1381.05c-3.29,6.85 -21.65,6.85 -7.19,22.06 9.45,10.34 14.71,23.85 14.71,37.87 0,2.87 -0.22,5.75 -0.66,8.58 -15.07,15.96 20.55,31.99 0,47.96 -25.14,-1.99 -50.28,-6.24 -75.36,0 -10.62,3.29 -18.84,-7.81 -15.89,-10.96 20.55,-22.54 -4.18,-35.49 -10.82,-50.01 -18.09,-39.39 -19.66,-38.64 19.8,-48.85 17.95,-16.51 43.91,3.56 61.66,-13.7 2.4,-2.74 4.66,-2.6 6.85,0l6.91 7.05z"/>
  <path class="fil116" d="M399.14 1374.2c-2.33,0 -4.59,0 -6.85,0 0.05,-0.87 0.08,-1.76 0.08,-2.64 0,-0.88 -0.03,-1.76 -0.08,-2.64l34.25 -2.6c11.59,-6.18 24.54,-9.43 37.68,-9.43 13.14,0 26.09,3.24 37.68,9.43l61.66 1.37c0.1,1.06 0.16,2.14 0.16,3.22 0,1.07 -0.05,2.16 -0.16,3.22l-164.43 0.06z"/>
  <path class="fil117" d="M1330.86 976.85l-68.51 0c-25.35,4.66 -51.18,4.52 -76.52,8.77 -6.04,-0.19 -11.93,-2 -17.06,-5.2 -2.21,-1.34 -3.56,-3.74 -3.56,-6.33 0,-1.45 0.43,-2.88 1.23,-4.09l-0 -0 164.42 0.34c0,1.99 0,4.25 0,6.51z"/>
  <path class="fil118" d="M892.41 387.67l-6.85 0c-26.17,-2.19 -32.06,-19.18 -32.54,-42.06 -1.51,-72.55 6.03,-144.83 6.85,-217.38 0.34,-30.97 5.89,-62.55 7.26,-94.06 0.69,-15.21 6.85,-23.98 23.91,-17.27 2.19,0.82 7.47,-2.95 8.22,-5.89l41.11 -0c2.86,4.47 4.38,9.67 4.38,14.97 0,3.88 -0.81,7.72 -2.38,11.27 -20.21,46.72 -10.55,95.91 -12.6,143.87 -2.74,66.66 1.3,133.87 -14.39,199.57 -6.51,6.3 -16.58,0.13 -22.96,6.98z"/>
  <path class="fil119" d="M912.96 380.82c15.96,-122.77 -9.52,-248.69 27.4,-369.95l41.11 0c0.48,75.36 -0.62,151.2 -6.85,226.76 -3.22,40.49 2.81,81.32 -1.85,121.95 -1.51,12.88 18.22,14.18 15.21,27.88l-47.96 -0c-0.91,-0.93 -1.42,-2.19 -1.42,-3.5 0,-1.68 0.84,-3.25 2.25,-4.17 1.82,-2.66 2.8,-5.81 2.8,-9.03 0,-0.97 -0.09,-1.94 -0.26,-2.89 0.07,0.65 0.1,1.31 0.1,1.96 0,3.21 -0.84,6.36 -2.43,9.14 -1.26,1.73 -2.79,3.26 -4.52,4.52 -7.81,0.13 -16.17,2.88 -23.57,-2.67z"/>
  <path class="fil120" d="M899.26 10.87l0 28.36c-10.82,-4.87 -4.18,-24.25 -18.91,-20.01 -9.25,2.67 -4.59,13.7 -4.93,20.9 -5.21,103.77 -10.3,207.6 -15.28,311.51 -0.82,17.81 10.82,28.16 25.35,35.9l-41.11 0.41 -13.7 -0.48c-11.85,-13.29 -10.76,-30.35 -9.73,-45.49 4.93,-73.3 0,-146.88 6.85,-219.98 3.01,-30.28 11.85,-59.53 6.24,-90.84 -4.52,-25.28 21.99,-11.17 31.1,-20.55l34.12 0.28z"/>
  <path class="fil121" d="M988.32 387.67c-39.39,-7.95 -22.13,-39.94 -22.33,-60.56 -0.62,-68.51 1.92,-137.02 5.82,-205.53 2.12,-36.86 -2.74,-74.47 9.73,-110.44l34.25 0c3.72,6.6 5.68,14.07 5.68,21.65 0,3.93 -0.53,7.85 -1.57,11.64 -20.55,69.47 -6.85,140.31 -9.59,210.39 -0.69,18.22 1.58,37.2 -2.88,54.81 -2.11,8.92 -3.18,18.07 -3.18,27.23 0,17.57 3.93,34.94 11.46,50.8l-6.85 0.34 -20.55 -0.34z"/>
  <path class="fil122" d="M1015.72 387.67c-28.78,-10.82 -25.62,-38.84 -21.03,-57.07 12.95,-51.31 -0.48,-102.76 5.69,-152.98 5.27,-43.64 -13.7,-89.06 11.37,-131.54 4.93,-8.43 -5,-23.98 3.9,-35.21l27.4 -0.34 13.7 0.34c7.95,5.82 13.7,10.62 4.87,21.72 -35.35,45.7 -26.03,99.82 -22.47,150.72 0.99,13.82 1.54,27.85 1.54,41.74 0,26.48 -1.94,53.09 -5.6,79.29 -6.85,49.81 -8.56,49.53 32.88,74.26 2.08,1.26 3.34,3.49 3.34,5.89 0,1.11 -0.27,2.2 -0.78,3.17l-54.81 -0z"/>
  <path class="fil123" d="M865 10.87c-18.57,6.3 -28.98,16.3 -20.55,37.95 11.44,30.55 -8.22,58.51 -9.73,88.45 -1.58,32.47 -0.82,64.67 -0.75,97.08 0,51.04 -1.92,102.15 -3.08,153.19l-13.7 -0c-4.66,-4.87 -12.95,-2.33 -17.13,-8.29 -13.7,-20.55 -4.93,-43.64 -7.26,-65.29 -8.84,-80.7 12.2,-159.9 8.56,-240.26 -1.03,-23.43 16.58,-43.3 29.66,-62.75l13.7 -0.41 20.28 0.34z"/>
  <path class="fil124" d="M830.75 10.87c-38.57,121.06 -30.35,245.67 -27.4,369.95 -5.82,5.14 -12.88,3.15 -19.46,3.22 -40.63,0.82 -39.19,0.62 -42.95,-40.08 -2.81,-30.14 0,-60.42 -7.53,-90.91 -4.93,-19.32 10.76,-40.69 10.34,-62.68 -0.89,-46.24 10.48,-91.53 11.85,-137.64 0.82,-28.43 1.03,-27.75 29.25,-23.98 3.7,0.48 -1.99,-12.95 4.8,-17.88l41.1 -0z"/>
  <path class="fil125" d="M789.64 10.87c-3.08,11.85 6.1,23.91 0,36.17 -10.89,-2.81 -5.21,-11.37 -6.85,-16.92 -1.37,-4.18 -1.44,-9.59 -7.53,-9.39 -5.98,0.03 -10.91,4.72 -11.23,10.69 -0.62,6.85 1.51,13.36 1.17,20.01 -3.36,56.18 -7.53,112.76 -15.41,167.85 -6.85,49.74 7.81,97.21 0.69,145.44 -1.92,12.95 5.07,15.96 15.69,15.96l37.48 0c0.59,-0.08 1.18,-0.12 1.77,-0.12 4.94,0 9.5,2.66 11.93,6.97l-116.46 0c1.11,-7.41 1.7,-14.98 1.7,-22.49 0,-13.88 -1.94,-27.73 -5.73,-41.08 -10.55,-34.87 7.19,-68.85 3.08,-104.41 -6.17,-52.96 5.48,-105.92 16.51,-157.57 6.38,-23.3 23.37,-42.25 45.83,-51.12l27.4 0.01z"/>
  <path class="fil126" d="M673.18 1360.02c0,-2.12 0,-4.18 0,-6.3l34.25 0c11.37,-11.3 26.03,-9.11 39.94,-9.93 19.18,1.03 38.43,-0.48 57.68,0.62 0.84,0 1.76,-0.02 2.62,-0.02 8.4,0 16.84,0.66 25.14,1.94 3.59,0.75 7.02,2.19 10.06,4.24 1.68,1.3 2.66,3.3 2.66,5.42 0,1.48 -0.48,2.92 -1.36,4.1l-171 -0.07z"/>
  <path class="fil127" d="M844.45 1359.95c0,-2.06 0,-4.18 0,-6.24 9.25,-10.14 21.79,-8.91 33.78,-9.73 13.7,-0.48 27.4,0 41.11,0 23.22,0.48 46.45,-1.58 69.54,1.44 3.86,0.75 7.54,2.25 10.83,4.39 2.24,1.19 3.64,3.51 3.64,6.05 0,1.44 -0.46,2.85 -1.31,4.02l-137.02 1.03 -20.56 -0.96z"/>
  <path class="fil128" d="M556.71 1353.65c0,1.92 0,3.9 0,5.82l-54.19 1.44c-12.06,2.17 -24.32,3.29 -36.58,3.29 -13.01,0 -26.02,-1.25 -38.78,-3.7l-23.71 -1.64c8.36,-7.95 16.3,-4.38 23.43,-5.48 10.47,-6.6 22.6,-10.12 34.98,-10.12 1.91,0 3.81,0.09 5.71,0.25 14.11,1.3 28.23,-0.62 42.34,0 15.62,2.4 33.09,-3.56 46.79,10.14z"/>
  <path class="fil129" d="M426.89 1360.5l75.36 0.41c0,1.78 -0.41,3.49 -0.69,5.27l-75.36 0c0.34,-1.78 0.34,-3.63 0.69,-5.69z"/>
  <path class="fil130" d="M748.53 1353.65l-41.11 0c9.39,-34.25 -7.81,-66.73 1.17,-104.61 8.97,-37.89 8.97,-82.21 6.37,-124.27 -0.69,-10.48 -4.18,-30.69 20.55,-23.02 0.76,2.52 1.29,5.13 1.58,7.74 0,0.96 0,0 0,-3.29 -0.32,-2.14 -1.09,-4.2 -2.26,-6.03 0.89,0 1.23,0.75 0.55,1.51 4.82,-13.21 7.3,-27.21 7.3,-41.28 0,-9.16 -1.06,-18.31 -3.13,-27.23 -7.47,-31.79 11.51,-53.64 43.09,-62.96l47.96 -0.01c18.7,26.37 -8.56,16.78 -17.06,21.92 -38.71,1.03 -41.11,1.23 -38.5,36.79 5.14,65.43 -17.13,128.87 -11.78,193.74 3.01,35.97 -13.29,71.45 0,107.29 4.52,12.67 -6.3,17.88 -14.73,23.7z"/>
  <path class="fil131" d="M810.19 983.7c6.85,-4.87 27.4,11.92 20.55,-13.7l47.96 -0.69 41.11 0.55c-8.91,23.71 -31.1,18.09 -48.85,22.13 -16.92,-3.97 -17.95,7.74 -19.11,19.39 -3.84,38.09 2.74,77 -7.67,114.55 -13.36,48.37 11.03,98.45 -7.88,146.81 -4.32,11.24 2.74,24.39 6.85,36.17 5.76,15.83 6.17,30.97 -5.62,44.53l-27.41 0c-18.43,-27.4 -17.54,-58.51 -13.29,-87.76 4.38,-30.42 9.04,-59.26 3.15,-90.43 -4.45,-23.64 -1.23,-49.67 0.69,-73.44 1.63,-21.3 2.6,-42.88 2.6,-64.27 0,-13.42 -0.49,-27.03 -1.07,-40.35 0.04,-0.13 0.04,-0.29 0.04,-0.45 0,-5.49 3.07,-10.53 7.95,-13.04l-0.01 -0z"/>
  <path class="fil132" d="M1002.02 1360.02c0,-2.12 0,-4.18 0,-6.3 5.68,-5.9 13.52,-9.25 21.7,-9.25 0.07,0 0.15,0 0.22,0 25.69,-1.44 51.38,-0.75 77.07,-0.41 11.37,-0.48 22.74,0 34.25,0.48 1.07,-0.05 2.16,-0.09 3.23,-0.09 8.34,0 16.6,1.81 24.18,5.3l3.97 3.9c0,2.19 0,4.32 0,6.44l-143.87 0.75 -20.76 -0.82z"/>
  <path class="fil133" d="M1358.27 10.87c0,2.26 0,4.52 0,6.85 -14.32,13.22 -13.36,30.55 -12.13,47.61 2.6,36.17 6.24,72.35 9.18,108.52 1.96,18.7 3,37.67 3,56.5 0,25.29 -1.83,50.71 -5.41,75.74 -1.03,6.92 -1.57,13.95 -1.57,20.98 0,20.97 4.72,41.68 13.79,60.58l-34.25 0c-4.87,-5.21 -14.32,-2.06 -17.95,-9.73 -9.87,-39.19 0,-78.65 -1.1,-118.11 -1.85,-57.34 2.4,-114.89 -6.85,-171.96 -1.09,-5.32 -1.65,-10.77 -1.65,-16.22 0,-23.27 10.05,-45.45 27.55,-60.79l27.4 0.01z"/>
  <path class="fil134" d="M1330.86 10.87c-23.43,42 -14.46,84.88 -10.41,130.17 1.72,18.24 2.69,36.8 2.69,55.15 0,15.85 -0.69,31.85 -2.01,47.64 -4.18,45.42 -2.95,91.32 -4.04,137.02 -2.45,2 -5.53,3.11 -8.71,3.11 -1.7,0 -3.4,-0.32 -4.98,-0.94 -15.62,-6.51 -16.99,-19.32 -15.83,-34.25 4.11,-50.83 1.37,-101.94 1.92,-152.5 0.48,-46.24 -11.71,-91.46 -5.69,-137.43 2.33,-17.95 1.71,-36.79 19.59,-47.96l6.85 0 20.62 -0.01z"/>
  <path class="fil120" d="M912.96 380.82l27.41 0c0,2.19 0,4.38 0,6.85l-47.96 -0c4.93,-8.08 13.08,-6.85 20.55,-6.85z"/>
  <path class="fil135" d="M1070.53 387.67c-54.81,-19.8 -53.3,-22.88 -42.27,-89.47 3.32,-20.62 5,-41.63 5,-62.55 0,-14.86 -0.91,-29.81 -2.55,-44.58 -4.73,-42.89 -7.19,-87.49 5.55,-129.14 3.15,-10.07 4.73,-30.76 23.64,-36.31 5.48,-1.58 -1.99,-9.52 -2.95,-14.66l54.82 -0.02c-21.31,84.2 -18.22,169.83 -15.14,255.47 -0.14,10.19 -1.29,20.43 -3.36,30.43 -4.66,31.38 -8.08,62.55 11.58,90.84l-34.32 -0.01z"/>
  <path class="fil136" d="M1104.78 387.67c-29.53,-7.26 -28.5,-33.02 -25.55,-52.75 9.93,-65.22 -1.71,-131.4 7.4,-195.46 6.03,-42.61 -14.87,-92.28 25.07,-128.52l41.1 0c-20.14,68.51 -15.35,138.53 -11.99,208.27 2.06,42.06 -9.8,83.58 -3.15,125.85 2.12,13.15 3.29,24.6 16.99,30.28 3.9,3.22 7.19,6.85 4.93,12.4l-54.81 -0.07z"/>
  <path class="fil137" d="M1159.59 387.67l-6.85 -6.85c-24.18,-28.78 -16.24,-63.92 -13.15,-95.09 3.46,-33.6 5.17,-67.67 5.17,-101.49 0,-33.83 -1.71,-67.89 -5.13,-101.48 -2.95,-27.75 14.94,-49.05 26.92,-71.93l6.85 0 27.4 0c-24.87,39.94 -12.33,83.58 -10.82,125.44 0.93,22.72 1.5,45.97 1.5,68.83 0,45.35 -2.08,90.9 -6.05,136.06 -1.58,16.44 -0.89,29.12 15.14,37.06 1.28,1.2 1.96,2.89 1.96,4.66 0,1.76 -0.68,3.45 -1.89,4.73l-34.25 0 -6.79 0.06z"/>
  <path class="fil138" d="M1200.69 387.67c0,-2.26 0,-4.52 0,-6.85 -22.2,-18.7 -16.03,-44.53 -12.74,-66.8 11.99,-82.21 5.89,-164.42 1.78,-246.63 -1.44,-28.43 7.33,-45.49 31.58,-56.79l41.11 0c-19.87,63.65 -4.73,127.36 -1.44,191.21 3.15,60.63 4.32,121.67 -17.81,180.04 -8.91,5.07 -20.01,-1.64 -28.57,5.48l-13.91 0.34z"/>
  <path class="fil139" d="M1214.4 387.67c7.19,-9.93 17.95,-5.69 27.4,-6.85 20.55,-15 41.11,-11.65 61.66,0l13.7 0c0.5,-0.05 1.01,-0.08 1.51,-0.08 5,0 9.63,2.64 12.19,6.93l-13.7 0 -102.76 -0z"/>
  <path class="fil140" d="M1166.44 970l0 6.85c-3.91,4.59 -9.42,7.56 -15.41,8.29 -15.62,1.3 -31.31,1.64 -47,1.58 -17.54,-1.17 -35.14,0.41 -52.75,0 -15.55,-1.92 -31.99,1.92 -46.72,-6.3 -2.34,-1.25 -3.8,-3.69 -3.8,-6.34 0,-1.45 0.44,-2.87 1.26,-4.07l13.7 0 150.71 -0z"/>
  <path class="fil141" d="M1002.02 970c0,2.19 0,4.45 0,6.85 -15.21,60.02 -14.18,120.64 -5.41,181.28 1.07,6.61 1.62,13.32 1.62,20.02 0,12.13 -1.78,24.21 -5.25,35.82 -8.97,31.1 3.22,64.4 3.43,97.01 0,14.25 8.56,28.71 -1.37,42.68l-75.22 -0c-8.43,-46.45 -1.92,-94.41 -7.53,-139.9 -8.77,-70.84 13.7,-141.13 -3.77,-211.01 -4.52,-18.15 7.47,-24.32 23.16,-25.49 16.78,-1.23 34.25,2.06 49.74,-6.85l20.62 -0.41z"/>
  <path class="fil142" d="M981.47 970c-6.82,8.66 -17.23,13.72 -28.25,13.72 -1.68,0 -3.38,-0.12 -5.04,-0.35 -35.35,-4.73 -38.78,11.03 -26.17,38.43 5.62,12.13 1.99,24.6 -0.82,36.38 -8.02,34.25 3.7,68.51 -4.93,104.13 -6.03,24.87 10.96,57 4.18,86.12 -8.22,35.28 12.4,70.22 -0.55,105.09l-41.11 -0c-19.25,-12.67 -16.51,-34.25 -18.15,-52.14 -2.61,-31.21 -4.08,-63.02 -4.08,-94.43 0,-36.89 2,-73.78 5.61,-110.41 2.26,-23.29 -2.26,-44.94 -4.04,-67.21 -1.23,-16.17 -2.12,-31.44 6.85,-45.63 0.99,-0.05 2.06,-0.02 3.09,-0.02 18.13,0 35.97,-4.75 51.7,-13.75l61.72 0.06z"/>
  <path class="fil143" d="M1303.46 380.82l-61.66 0c6.98,-47.97 10.45,-96.64 10.45,-145.18 0,-38.76 -2.35,-77.77 -6.69,-116.16 -4.25,-35.97 -15.41,-76.66 16.72,-108.66l41.12 -0.02c-11.03,35.28 -16.03,68.99 -5.07,107.29 4.93,17.4 12.26,45.08 -3.9,66.59 -8.36,11.1 4.32,20.55 5.69,31.65 5.55,43.78 -0.41,87.01 -4.25,130.17 -1.03,13.22 -1.23,24.25 7.6,34.32z"/>
  <path class="fil144" d="M1221.25 10.87c-32.41,21.72 -25.42,57.34 -22.13,85.36 6.85,54.81 0,109.61 5.07,164.42 1.51,14.94 -7.33,30.62 -9.18,46.18 -1.23,8.14 -1.85,16.42 -1.85,24.67 0,16.71 2.56,33.38 7.54,49.32 -22.74,0.55 -27.81,-9.59 -25.42,-32.13 5.17,-45.91 7.98,-92.55 7.98,-138.88 0,-48.11 -2.96,-96.52 -8.59,-144.19 -2.95,-23.02 7.33,-41.11 26.1,-54.81l20.47 0.06z"/>
  <path class="fil145" d="M1166.44 10.87c0.1,0.56 0.16,1.14 0.16,1.71 0,0.57 -0.05,1.15 -0.16,1.71 -20.55,43.71 -19.73,89.88 -13.7,135.85 10.48,77.07 -18.7,153.87 0,230.74 -19.73,-1.37 -22.81,-10.96 -23.57,-30.83 -2.95,-75.36 5.48,-150.17 0,-225.67 -2.67,-37.27 -7.88,-80.7 23.5,-113.45l13.77 -0.07z"/>
  <path class="fil146" d="M1365.12 387.67c-35.56,-16.17 -22.88,-50.7 -21.37,-74.4 3.15,-47.96 9.18,-95.91 1.99,-144.28 -5.13,-38.14 -8.56,-76.89 -9.62,-115.26 -0.62,-14.8 -5.89,-37 22.2,-36.04 -0.41,44.74 12.13,89.61 9.18,133.11 -2.95,43.5 9.45,86.73 0.55,131.88 -2.3,11.48 -3.46,23.21 -3.46,34.91 0,24.06 4.87,47.95 14.24,70.08l-13.7 -0.01z"/>
  <path class="fil147" d="M576.72 839.83c-3.84,23.16 -25.28,20.9 -40.35,27.95l-6.85 -6.1 47.2 -21.85z"/>
  <path class="fil125" d="M719.15 19.78c6.85,0.55 8.5,4.73 7.6,9.25 -1.3,2.42 -3.76,4 -6.5,4.18 -3.9,-0.69 -9.39,-2.12 -7.47,-8.02 0.82,-2.47 4.52,-3.97 6.37,-5.41z"/>
  <path class="fil17" d="M597.82 826.13c6.85,-8.77 17.54,-6.85 26.86,-9.25 -6.71,9.87 -13.15,20.07 -26.86,9.25z"/>
  <path class="fil148" d="M672.56 963.97c-6.85,9.32 -17.67,4.8 -26.72,6.3 -27.4,13.09 -54.81,15.83 -82.21,-0.55 0,-1.78 0,-3.63 0,-5.48l108.93 -0.27z"/>
  <path class="fil149" d="M652.62 771.32c13.15,3.43 19.32,-19.25 34.25,-9.25 -18.15,12.26 -32.47,30.21 -54.81,36.24 -0.48,-14.52 17.61,-15 20.55,-26.99z"/>
  <path class="fil150" d="M1262.35 1353.65l-47.96 0c-18.5,-9.8 -24.11,-27.4 -23.64,-45.9 0.11,-13.04 0.38,-27.06 0.38,-40.28 0,-83.3 -5.02,-167.12 -14.54,-249.63 -1.3,-12.47 -7.67,-27.4 7.74,-37.13 10.07,0.34 20.55,-3.22 29.94,2.88 20.01,39.05 26.86,82.55 30.97,124.55 7.4,76.39 -6.51,154.76 21.37,229.57 1.7,4.29 -2.69,10.6 -4.26,15.94z"/>
  <path class="fil151" d="M1214.4 983.7l-34.25 0 -2.6 -3.43 2.6 -3.43 82.21 0c-14.46,13.09 -31.99,4.18 -47.96,6.85z"/>
  <path class="fil152" d="M563.56 970l82.21 0.55 0 13.7c-39.53,7.6 -45.22,32.13 -41.93,68.92 3.08,35.42 -9.87,70.36 -17.88,105.43 -11.71,51.11 -42.06,97.76 -37.48,152.91 2.19,26.31 -11.44,42.27 -39.6,42.55l-41.1 0c-2.74,-7.6 2.26,-13.09 5.69,-18.7 17.64,-28.27 27.04,-61 27.04,-94.33 0,-4.52 -0.2,-9.07 -0.52,-13.57 -0.04,-1.82 -0.1,-3.72 -0.1,-5.56 0,-11.85 1.42,-23.69 4.21,-35.2 22.54,-59.19 29.12,-121.81 36.17,-184.01 1.37,-12.2 13.7,-19.39 9.8,-31.79l13.5 -0.9z"/>
  <path class="fil153" d="M549.86 970.34l12.06 7.4c-11.42,20.8 -18.13,43.93 -19.58,67.62 -1.99,47.55 -8.5,94.82 -33.57,137.02 -20.55,-38.78 -5.62,-77.62 0,-116.46l-0.01 -82.21c0,-4.45 0,-8.91 0,-13.7l41.11 0.34z"/>
  <path class="fil151" d="M1180.14 983.7c5.14,58.1 19.25,114.48 12.67,174.9 -2.81,25.76 -4.93,62.48 14.52,91.26 6.85,10.28 0,29.73 -4.25,39.26 -12.6,26.44 2.12,44.12 11.3,64.47l-47.96 -0c-9.18,-10.21 -10,-22.88 -9.32,-35.49 4.59,-92.35 -4.25,-184.98 -1.85,-277.05 0,-1.12 -0.03,-2.37 -0.03,-3.52 0,-12.6 1.13,-25.19 3.32,-37.58 2.4,-10.82 4.25,-24.46 21.65,-16.51l-0.08 0.27z"/>
  <path class="fil154" d="M508.75 1065.91l0 116.46c-1.37,48.3 7.4,97.35 -19.11,143.18 -6.46,10.01 -13.84,19.43 -21.99,28.08l-41.11 0.01c18.64,-48.78 39.05,-97.01 55.22,-146.61 12.67,-38.84 3.01,-81.59 16.17,-121.06 2.6,-7.67 3.97,-15.28 10.83,-20.07z"/>
  <path class="fil155" d="M330.63 1387.9c-31.04,16.58 -30.97,36.86 0,65.97 10.14,9.45 34.8,18.64 -1.85,27.4 -9.04,2.19 2.4,12.06 8.63,16.3l6.85 6.85c-7.41,0.96 -14.89,1.45 -22.36,1.45 -17.97,0 -35.9,-2.81 -53.01,-8.3 -26.58,-18.5 -31.58,-50.77 -47.96,-75.36 15.69,-13.7 35.01,-18.22 54.81,-20.55 2.67,2.33 -1.51,8.43 1.58,7.74 6.85,-1.51 2.47,-9.59 5.55,-13.7 13.89,-5.2 28.66,-7.88 43.5,-7.88 1.41,0 2.86,0.03 4.25,0.08l0 -0.01z"/>
  <path class="fil115" d="M282.68 1395.16c2.53,4.81 4.48,9.94 5.76,15.21 0.89,8.08 -5.14,8.43 -10.69,6.37 -4.25,-1.64 -12.2,5.96 -12.2,-3.49 0,-3.97 6.44,-7.95 10,-11.92l7.12 -6.17z"/>
  <path class="fil113" d="M508.75 1353.65c26.17,-8.63 32.06,-27.4 31.99,-53.57 0,-34.25 3.29,-68.51 29.73,-95.36 1.63,-1.56 2.66,-3.65 2.88,-5.89 -2.26,-59.6 34.25,-113.59 22.4,-175.66 -6.85,-36.45 0.55,-39.32 49.88,-39.32 -1.3,39.12 1.37,78.44 -9.39,116.88 -5.69,20.14 -6.85,41.86 -14.59,60.97 -21.44,51.44 -35.03,105.88 -40.27,161.35 -1.03,10.69 -11.65,20.55 -17.81,30.62l-6.85 0 -47.97 -0.02z"/>
  <path class="fil156" d="M1180.14 983.7c-28.43,13.7 -14.94,41.11 -15.07,60.08 -0.82,103.24 4.59,206.55 1.3,309.87l-27.41 0c-14.04,-32.2 -2.95,-66.52 -8.84,-99.89 -13.22,-75.36 -3.08,-151.82 -8.77,-227.66 -1.85,-24.18 0.41,-45.76 31.24,-49.26l13.7 0 13.7 0 0.14 6.85z"/>
  <path class="fil121" d="M940.36 380.82l0 -38.57c7.95,18.29 10,28.64 0,38.64l0 -0.07z"/>
  <path class="fil157" d="M810.19 983.7c10.07,51.45 2.88,104.13 1.3,155.04 -1.37,44.87 7.67,91.39 -7.6,137.77 -6.85,20.55 0.96,51.38 6.3,77.14l-61.66 0c3.36,-5.82 10.76,-12.67 9.52,-17.33 -14.39,-56.93 -1.92,-113.04 1.99,-169.63 1.1,-15.89 -5.82,-33.36 0,-49.46 13.7,-38.98 4.04,-78.44 5.76,-117.7 1.1,-27.27 28.84,-11.51 44.39,-15.83z"/>
  <path class="fil158" d="M865 983.7c0.75,62.21 6.44,123.32 -0.34,186.75 -4.8,45.01 -5.62,95.5 5.96,141.88 3.43,13.7 -4.52,29.8 8.08,41.11l-34.25 0 -6.85 0c-0.34,-17.47 3.63,-34.25 -5.69,-52.2 -4.15,-8.04 -6.32,-16.98 -6.32,-26.04 0,-7.88 1.64,-15.68 4.81,-22.88 8.15,-19.25 12.26,-39.39 1.03,-60.49 -11.78,-22.13 2.53,-44.46 6.1,-65.7 6.85,-41.11 -1.17,-82.21 7.88,-122.9 2.33,-10.14 2.46,-23.5 19.59,-19.52z"/>
  <path class="fil159" d="M995.17 1353.65c-14.46,-41.11 -1.37,-86.73 -18.29,-127.77 34.25,-49.19 -6.44,-101.6 6.37,-152.36 2.53,-12.58 3.82,-25.47 3.82,-38.32 0,-10.28 -0.83,-20.6 -2.45,-30.74 -1.99,-16.72 8.29,-20.55 17.54,-27.4l47.96 0c-23.43,38.84 -21.58,81.8 -17.81,124.14 6.85,73.51 -0.41,147.23 5.41,220.67 1.03,12.88 -1.85,25.14 -15,31.99l-27.41 0 -0.14 -0.2z"/>
  <path class="fil111" d="M730.38 1129.49c-5.41,-11.58 0.41,-20.55 4.45,-29.32 2.67,1.92 6.85,3.22 7.81,5.82 5.07,12.33 -6.03,16.3 -12.26,23.5z"/>
  <path class="fil160" d="M1022.57 1353.65c4.79,-8.87 7.29,-18.81 7.29,-28.89 0,-2.43 -0.15,-4.87 -0.44,-7.28 -3.29,-61.18 0,-122.56 -2.53,-183.33 -1.71,-40.08 -2.74,-80.09 -2.4,-120.16 0,-19.25 6.44,-31.99 25.49,-37.13l54.8 -0.01c-21.58,19.25 -19.8,44.81 -18.15,69.81 4.52,71.32 0.89,142.77 2.26,214.16 0.62,32.27 14.46,61.25 15.89,92.83l-82.21 0z"/>
  <path class="fil161" d="M1104.78 1353.65c-23.64,-30.62 -21.72,-67.07 -23.91,-102.76 -5,-80.22 5.14,-160.79 -6.3,-240.81 -3.49,-24.05 17.33,-24.8 30.21,-33.36l47.96 0c-17.74,8.91 -25.14,22.54 -24.11,43.02 3.77,79.61 3.08,159.63 10.89,238.75 3.22,32.41 -0.89,63.37 -0.41,95.02l-34.32 0.14z"/>
 </g>
</svg>
